<?xml version="1.0" encoding="iso-8859-1"?>
<!-- Generator: Adobe Illustrator 19.0.0, SVG Export Plug-In . SVG Version: 6.00 Build 0)  -->
<svg version="1.1" id="Capa_1" xmlns="http://www.w3.org/2000/svg" xmlns:xlink="http://www.w3.org/1999/xlink" x="0px" y="0px"
	 viewBox="0 0 490.057 490.057" style="enable-background:new 0 0 490.057 490.057;" xml:space="preserve">
<path style="fill:#1185E0;" d="M480.653,125.453L251.298,26.71c-4.18-1.567-8.359-1.567-12.539,0L9.404,125.453
	C3.657,128.065,0,133.812,0,140.082v52.767c0,8.882,6.792,15.673,15.673,15.673h17.241v224.653H16.718
	c-8.882,0-15.673,6.792-15.673,15.673s6.792,15.673,15.673,15.673h451.396c8.882,0,15.673-6.792,15.673-15.673
	s-6.792-15.673-15.673-15.673h-10.971V208.522h17.241c8.882,0,15.673-6.792,15.673-15.673v-52.767
	C490.057,133.812,486.4,128.065,480.653,125.453z M64.261,208.522h43.363v224.653H64.261
	C64.261,433.176,64.261,208.522,64.261,208.522z M345.861,208.522v224.653h-48.065V208.522H345.861z M266.449,433.176h-48.065
	V208.522h48.065V433.176z M187.037,433.176h-48.065V208.522h48.065V433.176z M425.796,433.176h-48.588V208.522h48.588V433.176z
	 M458.71,177.176H31.347v-26.645L245.029,58.58l213.682,91.951V177.176z"/>
<path style="fill:#4DCFE0;" d="M245.029,165.159c-23.51,0-42.318-18.808-42.318-42.318s18.808-42.318,42.318-42.318
	s42.318,18.808,42.318,42.318S268.539,165.159,245.029,165.159z M245.029,111.869c-6.269,0-10.971,4.702-10.971,10.971
	c0,6.269,4.702,10.971,10.971,10.971c6.269,0,10.971-4.702,10.971-10.971C256,116.571,251.298,111.869,245.029,111.869z"/>
<g>
</g>
<g>
</g>
<g>
</g>
<g>
</g>
<g>
</g>
<g>
</g>
<g>
</g>
<g>
</g>
<g>
</g>
<g>
</g>
<g>
</g>
<g>
</g>
<g>
</g>
<g>
</g>
<g>
</g>
</svg>
