<svg xmlns="http://www.w3.org/2000/svg" width="15" height="15" viewBox="0 0 15 15">
  <path id="close-green" d="M9.947,7.5,14.6,2.848A1.387,1.387,0,0,0,14.593.893L14.109.409A1.386,1.386,0,0,0,12.152.4L7.5,5.053,2.847.4A1.383,1.383,0,0,0,.891.408L.407.892A1.386,1.386,0,0,0,.4,2.848L5.053,7.5.4,12.151a1.386,1.386,0,0,0,.007,1.955l.484.484a1.381,1.381,0,0,0,1.956.007L7.5,9.946,12.152,14.6a1.383,1.383,0,0,0,1.956-.007l.484-.484A1.387,1.387,0,0,0,14.6,12.15L9.947,7.5Z" transform="translate(0 0)" fill="#c4c7cc" fill-rule="evenodd"/>
</svg>
