<?xml version="1.0" encoding="UTF-8"?><svg id="_Слой_2" xmlns="http://www.w3.org/2000/svg" viewBox="0 0 658.55 67.18"><g id="_Слой_1-2"><g id="_Слой_6"><g id="_Счетчик"><path d="m111.02,33.88c0,8.84.02,17.67,0,26.51-.01,4.87-1.92,6.77-6.88,6.78-13.34.02-26.67.03-40.01,0-4.93-.01-6.82-1.91-6.82-6.82,0-17.78,0-35.57.03-53.35,0-5.14,1.89-6.97,7.01-6.98,13.22-.01,26.44-.01,39.66,0,5.09,0,6.96,1.88,6.97,7.03.02,8.95,0,17.9,0,26.85.01,0,.02,0,.03,0Z" style="fill:#4fb0a4; stroke-width:0px;"/><path d="m178.37,33.88c0,8.84.02,17.67,0,26.51-.01,4.87-1.92,6.77-6.88,6.78-13.34.02-26.67.03-40.01,0-4.93-.01-6.82-1.91-6.82-6.82,0-17.78,0-35.57.03-53.35,0-5.14,1.89-6.97,7.01-6.98,13.22-.01,26.44-.01,39.66,0,5.09,0,6.96,1.88,6.97,7.03.02,8.95,0,17.9,0,26.85.01,0,.02,0,.03,0Z" style="fill:#4fb0a4; stroke-width:0px;"/><path d="m236.02,33.88c0,8.84.02,17.67,0,26.51-.01,4.87-1.92,6.77-6.88,6.78-13.34.02-26.67.03-40.01,0-4.93-.01-6.82-1.91-6.82-6.82,0-17.78,0-35.57.03-53.35,0-5.14,1.89-6.97,7.01-6.98,13.22-.01,26.44-.01,39.66,0,5.09,0,6.96,1.88,6.97,7.03.02,8.95,0,17.9,0,26.85.01,0,.02,0,.03,0Z" style="fill:#4fb0a4; stroke-width:0px;"/><path d="m293.77,33.88c0,8.84.02,17.67,0,26.51-.01,4.87-1.92,6.77-6.88,6.78-13.34.02-26.67.03-40.01,0-4.93-.01-6.82-1.91-6.82-6.82,0-17.78,0-35.57.03-53.35,0-5.14,1.89-6.97,7.01-6.98,13.22-.01,26.44-.01,39.66,0,5.09,0,6.96,1.88,6.97,7.03.02,8.95,0,17.9,0,26.85.01,0,.02,0,.03,0Z" style="fill:#4fb0a4; stroke-width:0px;"/><path d="m360.97,33.88c0,8.84.02,17.67,0,26.51-.01,4.87-1.92,6.77-6.88,6.78-13.34.02-26.67.03-40.01,0-4.93-.01-6.82-1.91-6.82-6.82,0-17.78,0-35.57.03-53.35,0-5.14,1.89-6.97,7.01-6.98,13.22-.01,26.44-.01,39.66,0,5.09,0,6.96,1.88,6.97,7.03.02,8.95,0,17.9,0,26.85.01,0,.02,0,.03,0Z" style="fill:#4fb0a4; stroke-width:0px;"/><path d="m658.54,33.88c0,8.84.02,17.67,0,26.51-.01,4.87-1.92,6.77-6.88,6.78-13.34.02-26.67.03-40.01,0-4.93-.01-6.82-1.91-6.82-6.82,0-17.78,0-35.57.03-53.35,0-5.14,1.89-6.97,7.01-6.98,13.22-.01,26.44-.01,39.66,0,5.09,0,6.96,1.88,6.97,7.03.02,8.95,0,17.9,0,26.85.01,0,.02,0,.03,0Z" style="fill:#4fb0a4; stroke-width:0px;"/><path d="m600.82,33.88c0,8.84.02,17.67,0,26.51-.01,4.87-1.92,6.77-6.88,6.78-13.34.02-26.67.03-40.01,0-4.93-.01-6.82-1.91-6.82-6.82,0-17.78,0-35.57.03-53.35,0-5.14,1.89-6.97,7.01-6.98,13.22-.01,26.44-.01,39.66,0,5.09,0,6.96,1.88,6.97,7.03.02,8.95,0,17.9,0,26.85.01,0,.02,0,.03,0Z" style="fill:#4fb0a4; stroke-width:0px;"/><path d="m543.69,33.88c0,8.84.02,17.67,0,26.51-.01,4.87-1.92,6.77-6.88,6.78-13.34.02-26.67.03-40.01,0-4.93-.01-6.82-1.91-6.82-6.82,0-17.78,0-35.57.03-53.35,0-5.14,1.89-6.97,7.01-6.98,13.22-.01,26.44-.01,39.66,0,5.09,0,6.96,1.88,6.97,7.03.02,8.95,0,17.9,0,26.85.01,0,.02,0,.03,0Z" style="fill:#4fb0a4; stroke-width:0px;"/><path d="m476.88,33.88c0,8.84.02,17.67,0,26.51-.01,4.87-1.92,6.77-6.88,6.78-13.34.02-26.67.03-40.01,0-4.93-.01-6.82-1.91-6.82-6.82,0-17.78,0-35.57.03-53.35,0-5.14,1.89-6.97,7.01-6.98,13.22-.01,26.44-.01,39.66,0,5.09,0,6.96,1.88,6.97,7.03.02,8.95,0,17.9,0,26.85.01,0,.02,0,.03,0Z" style="fill:#4fb0a4; stroke-width:0px;"/><path d="m418.59,33.88c0,8.84.02,17.67,0,26.51-.01,4.87-1.92,6.77-6.88,6.78-13.34.02-26.67.03-40.01,0-4.93-.01-6.82-1.91-6.82-6.82,0-17.78,0-35.57.03-53.35,0-5.14,1.89-6.97,7.01-6.98,13.22-.01,26.44-.01,39.66,0,5.09,0,6.96,1.88,6.97,7.03.02,8.95,0,17.9,0,26.85.01,0,.02,0,.03,0Z" style="fill:#4fb0a4; stroke-width:0px;"/><path d="m96.14,33.63c0,5.98-.98,10.41-2.94,13.29s-4.98,4.31-9.06,4.31-6.93-1.48-8.94-4.45-3.01-7.35-3.01-13.15.98-10.5,2.93-13.37,4.96-4.3,9.02-4.3,6.94,1.5,8.96,4.5,3.04,7.39,3.04,13.17Zm-16.76,0c0,4.2.36,7.21,1.09,9.04s1.95,2.73,3.67,2.73,2.91-.92,3.66-2.77,1.12-4.84,1.12-9-.38-7.22-1.14-9.06-1.97-2.75-3.64-2.75-2.92.92-3.66,2.75-1.1,4.86-1.1,9.06Z" style="fill:#eb5648; stroke-width:0px;"/><path d="m53.72,33.88c0,8.84.02,17.67,0,26.51-.01,4.87-1.92,6.77-6.88,6.78-13.34.02-26.67.03-40.01,0C1.89,67.15,0,65.26,0,60.34,0,42.56,0,24.77.03,6.99.04,1.85,1.92.01,7.04,0c13.22-.01,26.44-.01,39.66,0,5.09,0,6.96,1.88,6.97,7.03.02,8.95,0,17.9,0,26.85.01,0,.02,0,.03,0Z" style="fill:#4fb0a4; stroke-width:0px;"/><path d="m35.36,50.73h-7.24v-19.83l.07-3.26.12-3.56c-1.2,1.2-2.04,1.99-2.51,2.37l-3.94,3.16-3.49-4.36,11.04-8.79h5.95v34.27Z" style="fill:#eb5648; stroke-width:0px;"/><path d="m162.36,24.14c0,2.14-.65,3.96-1.95,5.46s-3.12,2.53-5.46,3.09v.14c2.77.34,4.86,1.18,6.28,2.52s2.13,3.14,2.13,5.4c0,3.3-1.2,5.86-3.59,7.7s-5.8,2.75-10.24,2.75c-3.72,0-7.02-.62-9.89-1.85v-6.16c1.33.67,2.79,1.22,4.38,1.64s3.17.63,4.73.63c2.39,0,4.16-.41,5.3-1.22s1.71-2.12,1.71-3.91c0-1.61-.66-2.75-1.97-3.42s-3.41-1.01-6.28-1.01h-2.6v-5.55h2.65c2.66,0,4.6-.35,5.82-1.04s1.84-1.89,1.84-3.57c0-2.59-1.62-3.89-4.88-3.89-1.12,0-2.27.19-3.43.56s-2.46,1.02-3.88,1.95l-3.35-4.99c3.12-2.25,6.85-3.38,11.18-3.38,3.55,0,6.35.72,8.4,2.16s3.08,3.44,3.08,6Z" style="fill:#fff; stroke-width:0px;"/><path d="m197.07,36.14c0-6.78,1.43-11.83,4.3-15.14s7.16-4.97,12.88-4.97c1.95,0,3.48.12,4.59.35v5.79c-1.39-.31-2.77-.47-4.12-.47-2.48,0-4.51.38-6.08,1.12s-2.75,1.86-3.53,3.33-1.24,3.55-1.38,6.26h.3c1.55-2.66,4.02-3.98,7.43-3.98,3.06,0,5.46.96,7.2,2.88s2.6,4.58,2.6,7.97c0,3.66-1.03,6.55-3.09,8.68s-4.92,3.2-8.58,3.2c-2.53,0-4.74-.59-6.62-1.76s-3.34-2.88-4.36-5.13-1.54-4.96-1.54-8.13Zm12.38,9.23c1.55,0,2.73-.52,3.56-1.56s1.24-2.52,1.24-4.44c0-1.67-.39-2.99-1.16-3.95s-1.94-1.44-3.5-1.44c-1.47,0-2.72.48-3.76,1.43s-1.56,2.06-1.56,3.33c0,1.86.49,3.43,1.46,4.71s2.21,1.92,3.71,1.92Z" style="fill:#fff; stroke-width:0px;"/><path d="m275.41,50.73h-7.24v-19.83l.07-3.26.12-3.56c-1.2,1.2-2.04,1.99-2.51,2.37l-3.94,3.16-3.49-4.36,11.04-8.79h5.95v34.27Z" style="fill:#fff; stroke-width:0px;"/><path d="m346.14,50.97h-23.95v-5.04l8.6-8.7c2.55-2.61,4.21-4.42,4.99-5.43s1.34-1.94,1.69-2.8.52-1.75.52-2.67c0-1.38-.38-2.4-1.14-3.07s-1.77-1.01-3.04-1.01c-1.33,0-2.62.3-3.87.91s-2.55,1.48-3.91,2.6l-3.94-4.66c1.69-1.44,3.09-2.45,4.2-3.05s2.32-1.05,3.63-1.37,2.78-.48,4.41-.48c2.14,0,4.03.39,5.67,1.17s2.91,1.88,3.82,3.28,1.36,3.02,1.36,4.83c0,1.58-.28,3.06-.83,4.44s-1.41,2.8-2.58,4.25-3.21,3.52-6.15,6.21l-4.41,4.15v.33h14.93v6.09Z" style="fill:#fff; stroke-width:0px;"/><path d="m403.76,50.97h-23.95v-5.04l8.6-8.7c2.55-2.61,4.21-4.42,4.99-5.43s1.34-1.94,1.69-2.8.52-1.75.52-2.67c0-1.38-.38-2.4-1.14-3.07s-1.77-1.01-3.04-1.01c-1.33,0-2.62.3-3.87.91s-2.55,1.48-3.91,2.6l-3.94-4.66c1.69-1.44,3.09-2.45,4.2-3.05s2.32-1.05,3.63-1.37,2.78-.48,4.41-.48c2.14,0,4.03.39,5.67,1.17s2.91,1.88,3.82,3.28,1.36,3.02,1.36,4.83c0,1.58-.28,3.06-.83,4.44s-1.41,2.8-2.58,4.25-3.21,3.52-6.15,6.21l-4.41,4.15v.33h14.93v6.09Z" style="fill:#fff; stroke-width:0px;"/><path d="m462.94,43.62h-4.12v7.1h-7.08v-7.1h-14.63v-5.04l15.02-22.12h6.68v21.54h4.12v5.62Zm-11.2-5.62v-5.81c0-.97.04-2.38.12-4.22s.14-2.91.19-3.21h-.19c-.58,1.28-1.27,2.53-2.09,3.75l-6.28,9.49h8.25Z" style="fill:#fff; stroke-width:0px;"/><path d="m527.68,24.14c0,2.14-.65,3.96-1.95,5.46s-3.12,2.53-5.46,3.09v.14c2.77.34,4.86,1.18,6.28,2.52s2.13,3.14,2.13,5.4c0,3.3-1.2,5.86-3.59,7.7s-5.8,2.75-10.24,2.75c-3.72,0-7.02-.62-9.89-1.85v-6.16c1.33.67,2.79,1.22,4.38,1.64s3.17.63,4.73.63c2.39,0,4.16-.41,5.3-1.22s1.71-2.12,1.71-3.91c0-1.61-.66-2.75-1.97-3.42s-3.41-1.01-6.28-1.01h-2.6v-5.55h2.65c2.66,0,4.6-.35,5.82-1.04s1.84-1.89,1.84-3.57c0-2.59-1.62-3.89-4.88-3.89-1.12,0-2.27.19-3.43.56s-2.46,1.02-3.88,1.95l-3.35-4.99c3.12-2.25,6.85-3.38,11.18-3.38,3.55,0,6.35.72,8.4,2.16s3.08,3.44,3.08,6Z" style="fill:#fff; stroke-width:0px;"/><path d="m561.87,36.14c0-6.78,1.43-11.83,4.3-15.14s7.16-4.97,12.88-4.97c1.95,0,3.48.12,4.59.35v5.79c-1.39-.31-2.77-.47-4.12-.47-2.48,0-4.51.38-6.08,1.12s-2.75,1.86-3.53,3.33-1.24,3.55-1.38,6.26h.3c1.55-2.66,4.02-3.98,7.43-3.98,3.06,0,5.46.96,7.2,2.88s2.6,4.58,2.6,7.97c0,3.66-1.03,6.55-3.09,8.68s-4.92,3.2-8.58,3.2c-2.53,0-4.74-.59-6.62-1.76s-3.34-2.88-4.36-5.13-1.54-4.96-1.54-8.13Zm12.38,9.23c1.55,0,2.73-.52,3.56-1.56s1.24-2.52,1.24-4.44c0-1.67-.39-2.99-1.16-3.95s-1.94-1.44-3.5-1.44c-1.47,0-2.72.48-3.76,1.43s-1.56,2.06-1.56,3.33c0,1.86.49,3.43,1.46,4.71s2.21,1.92,3.71,1.92Z" style="fill:#fff; stroke-width:0px;"/><path d="m643.66,33.63c0,5.98-.98,10.41-2.94,13.29s-4.98,4.31-9.06,4.31-6.93-1.48-8.94-4.45-3.01-7.35-3.01-13.15.98-10.5,2.93-13.37,4.96-4.3,9.02-4.3,6.94,1.5,8.96,4.5,3.04,7.39,3.04,13.17Zm-16.76,0c0,4.2.36,7.21,1.09,9.04s1.95,2.73,3.67,2.73,2.91-.92,3.66-2.77,1.12-4.84,1.12-9-.38-7.22-1.14-9.06-1.97-2.75-3.64-2.75-2.92.92-3.66,2.75-1.1,4.86-1.1,9.06Z" style="fill:#fff; stroke-width:0px;"/></g></g></g></svg>