<svg xmlns="http://www.w3.org/2000/svg" viewBox="0 0 689.08 363.34"><g id="Слой_2" data-name="Слой 2"><g id="Слой_1-2" data-name="Слой 1"><g id="Слой_6" data-name="Слой 6"><g id="картинка"><g id="_4" data-name="4"><path d="M367.92,15.29c11-2.1,8.9-9.54,19.54-5.83,0,0,9.81-6.32,10.73,10.46.8,14.6-6.18,21.62-17.29,27.61-13.18,7.11-33.92-.63-33-17.1C348.45,19,357.13,17.35,367.92,15.29Z" style="fill:#1d3f70"/><path d="M394.59,36.32h0c11.05,3.58,22.32,2.85,29.3-7.51a60.61,60.61,0,0,0,6.2-10.66,2.24,2.24,0,0,1,4.28,1.18c-1.77,9.36-5.95,19.06-14.12,24.58-8.64,5.46-19.93,5.66-29.3,2C384.44,43.45,388.11,33.78,394.59,36.32Z" style="fill:#f99370"/><path d="M390.89,35.25a7.32,7.32,0,0,1,5,0c8.7,3.35,20.17,1.56,26.25-6.49C427.8,20.13,425,25.26,433,25c4.75,13.52-16.37,31.71-38.55,27.44Z" style="fill:#e8c0a6"/><path d="M471.25,4.57,403.41,16.42h-.08c-.63.06-1.06,1-1,2.15s.7,2,1.33,1.94h.08l68.86-.18Z" style="fill:#eb5648"/><ellipse cx="471.94" cy="12.44" rx="3.49" ry="7.9" transform="translate(0.73 41.43) rotate(-5.03)" style="fill:#ce3932"/><path d="M469.32,12.67c.29,3.27,1.69,5.82,3.14,5.69s2.38-2.88,2.1-6.15-1.7-5.81-3.14-5.68S469,9.41,469.32,12.67Z" style="fill:#aab9e8"/><path d="M391.15,33l-.31,2.29c-1.17,3.81-6.24.82-7.08-.69,0,0,.46-2.16.55-3.18Z" style="fill:#f99370"/><path d="M344.89,176.59l-10.61-13c.5-.78,4.18-2.71,5.23-3.78.76-.54,9.24-9.17,10.14-10l6.1,7.48-10.61,6.63a3.1,3.1,0,0,0-1.25,3.74c1.05,3.15,3.73,5.53,3.09,8.61A1.21,1.21,0,0,1,344.89,176.59Z" style="fill:#f99370"/><path d="M335.21,162.15a4.12,4.12,0,0,0-.93,1.41L345,176.7a1.21,1.21,0,0,0,2-.12c1-1.65,1.63-5-3-11.35a16.54,16.54,0,0,1-4.44-5.45A10.48,10.48,0,0,0,335.21,162.15Z" style="fill:#1d3f70"/><path d="M347.65,172.55c-.61.16-1-.69-3-.1a.35.35,0,0,1-.43-.23C344.31,170.93,348.89,171.76,347.65,172.55Z" style="fill:#e8c0a6"/><path d="M346.86,170.14a.35.35,0,0,1-.3,0h0a4.72,4.72,0,0,0-3.35,0,.35.35,0,0,1-.26-.64,5.37,5.37,0,0,1,3.88,0A.35.35,0,0,1,346.86,170.14Z" style="fill:#e8c0a6"/><path d="M345.4,167.4c-.45.17-1.66-.58-3.83.18a.34.34,0,0,1-.24-.64C343.54,166.23,346.2,166.51,345.4,167.4Z" style="fill:#e8c0a6"/><path d="M347,176.56l-11.74-14.41a4.12,4.12,0,0,0-.93,1.41L345,176.7A1.21,1.21,0,0,0,347,176.56Z" style="fill:#395b96"/><path d="M397.27,179.21,380.49,179c-.28-.9.59-4.95.45-6.45,0-.63-.17-4.08-.22-4.71L382,158.4l7.4.08-1.69,12.4a3.1,3.1,0,0,0,2.07,3.35c3.09,1.21,6.61.68,8.58,3.11A1.23,1.23,0,0,1,397.27,179.21Z" style="fill:#f99370"/><path d="M380,177.41a4.23,4.23,0,0,0,.49,1.62l16.95.18a1.2,1.2,0,0,0,1.16-1.57c-.62-1.82-2.83-4.48-10.63-5a16.55,16.55,0,0,1-7-.08A10.43,10.43,0,0,0,380,177.41Z" style="fill:#1d3f70"/><path d="M393.62,177a.35.35,0,0,1-.32-.48,4.37,4.37,0,0,1,2.2-2.38.35.35,0,0,1,.25.65,3.55,3.55,0,0,0-1.81,2A.35.35,0,0,1,393.62,177Z" style="fill:#e8c0a6"/><path d="M391,176.63a.34.34,0,0,1-.33-.44c.63-2.28,3.61-4,2.79-2.37a4.79,4.79,0,0,0-2.14,2.58A.33.33,0,0,1,391,176.63Z" style="fill:#e8c0a6"/><path d="M387.92,176.23a.35.35,0,0,1-.32-.46,6.82,6.82,0,0,1,2.44-3.18.34.34,0,0,1,.37.58,6.18,6.18,0,0,0-2.16,2.83A.36.36,0,0,1,387.92,176.23Z" style="fill:#e8c0a6"/><path d="M398.59,177.61l-18.59-.2a4.23,4.23,0,0,0,.49,1.62l16.95.18A1.2,1.2,0,0,0,398.59,177.61Z" style="fill:#395b96"/><path d="M384.48,24.19c0,.12,0,.25,0,.37.18-.09.11,4.34-.27,7.51a12.26,12.26,0,0,0,6.84,1.46,40.9,40.9,0,0,0,.3-10.09C390.63,19.41,384.34,20.1,384.48,24.19Z" style="fill:#e57d61"/><path d="M379.92,21.76c.55,3.13,1.65,6.64,4.15,8.67h0A7.79,7.79,0,0,0,387.61,32c7.26,2,15.8-6.75,10-12.77-2.1-1.89-2.59-5.27-4.27-7.16-2.45-3.45-7.72-3.19-10.53-.31C380.24,14.36,379.41,17.92,379.92,21.76Z" style="fill:#f99370"/><path d="M391.83,19.66a.47.47,0,0,0-.85-.41A.47.47,0,0,0,391.83,19.66Z" style="fill:#994f4a"/><path d="M395.8,18.94a.47.47,0,0,0-.85-.42A.47.47,0,0,0,395.8,18.94Z" style="fill:#994f4a"/><path d="M388.48,170.17a12.77,12.77,0,0,1-9.85-2.27c.34-1.18.66-2.33,1-3.51h0c10.51-40-.5-61.09-.5-61.09-2.33,20.7-7.85,41-27.82,58.85-.84.75-1.7,1.5-2.6,2.24-4.5-1-8.67-8.42-8.67-8.42.7-.82,1.37-1.65,2-2.48,22.08-28.43,10.92-58.88,21-77.7,5.36-10,26.62-3.75,34.71,5.61C411.33,124,395.61,156.63,388.48,170.17Z" style="fill:#fff"/><path d="M394.63,23.06c-.29,0-.93.12-.92-.27a.17.17,0,0,1,.22-.12,1.6,1.6,0,0,0,1.57-.41c0-.09-.09-.19-.21-.25-1-.49-2.35-3.29-1.43-2.65,0,0,.7,1.86,1.6,2.34C396.47,22.38,395.43,22.93,394.63,23.06Z" style="fill:#994f4a"/><path d="M346.34,160.45l-.64-.61c.18-.18,17.54-18.72,22.46-35.1s4.37-43.39,4.37-43.66l.88,0c0,.27.56,27.39-4.4,43.94-2.61,8.67-8.63,17.85-13.23,24A141.33,141.33,0,0,1,346.34,160.45Z" style="fill:#dfdee0"/><path d="M379.92,21.76c.55,3.13,1.65,6.64,4.15,8.67h0c-1.4-1.68-2.3-5.47-2.3-5.47l.62-1.7c10.81-3.67,9.76-12.38,9.76-12.38C385.15,6,378.39,14.62,379.92,21.76Z" style="fill:#e57d61"/><path d="M391,10.12s1,8.59-8.67,12.27l-3.52-1.88C375.3,13.88,381.32,4,391,10.12Z" style="fill:#1d3f70"/><path d="M379.6,7.64C382,15.8,391.48,13.19,389.35,5,387-3.2,377.48-.59,379.6,7.64Z" style="fill:#1d3f70"/><path d="M378,23.37c.76,3.53,5.2,2.53,4.37-1S377.12,19.86,378,23.37Z" style="fill:#f99370"/><path d="M379.11,24.09a2.19,2.19,0,0,1-.1-2.59c.71-.57,2-.29,1.89.07s-.95-.39-1.64.19S379.53,23.79,379.11,24.09Z" style="fill:#994f4a"/><path d="M380.78,23.82c-.36,0-.52-1.35-1.93-1.47a.19.19,0,0,1-.17-.19C379.66,21.4,381.45,23.88,380.78,23.82Z" style="fill:#994f4a"/><path d="M379.93,25a.41.41,0,0,0,.81,0A.41.41,0,0,0,379.93,25Z" style="fill:#f4d4be"/><path d="M378.64,167.9a12.73,12.73,0,0,0,9.84,2.27s.64-1,1.65-3c0,0-6.86.65-10.53-2.79h0C379.3,165.55,379,166.71,378.64,167.9Z" style="fill:#dfdee0"/><path d="M379.59,164.39c-.1.41-.21.82-.32,1.23h2.05c7.16-21.45,8.41-56.76-2.22-62.31,0,0,11,21,.5,61.08Z" style="fill:#dfdee0"/><path d="M386.3,169a147.45,147.45,0,0,0,11.14-37.18,97.94,97.94,0,0,0,.49-27c-1.87-14.42-6.84-22.09-6.89-22.16l-.66.43c.05.07,4.94,7.62,6.78,21.89,1.7,13.17,1.07,34.92-11.58,63.76Z" style="fill:#dfdee0"/><path d="M399.51,60.69c-1.48,4.36-3.73,8.92-.95,17.55.31,2.29-.81,3.16-.81,3.16-10.75,3.59-26.07.33-35.27-4.08-5.26-4.29,1.93-12.44,2.35-15.23C369.31,32.28,379.1,33.56,384,33.56c1.6,1.86,5.57,4.93,6.92,1.69,7,1,4.91,8.83,6.74,11.7C400.86,52.09,401.28,55.78,399.51,60.69Z" style="fill:#e8c0a6"/><path d="M394,25.39a1.46,1.46,0,0,0,.55-.1.22.22,0,1,0-.18-.4,1.31,1.31,0,0,1-1.36-.37.22.22,0,1,0-.3.31A1.83,1.83,0,0,0,394,25.39Z" style="fill:#994f4a"/><path d="M389.54,18l.08,0,2-.81a.22.22,0,0,0,.12-.29.21.21,0,0,0-.28-.12l-2,.82a.22.22,0,0,0,.08.42Z" style="fill:#994f4a"/><path d="M393.55,16.91h1.83a.22.22,0,1,0,0-.43h-1.83a.22.22,0,1,0,0,.43Z" style="fill:#994f4a"/><path d="M377.42,48c7.25,3.89,15.4,7.57,23.9,6.51,12.64-2.4,17.05-16.7,17.49-28,.17-1.75.14-3.94-2.15-4-2.59,0-2.3,3.13-3,4.9-6.13,19.26-13.25,20.66-29.6,10C377.14,33.08,370.54,43.57,377.42,48Z" style="fill:#f99370"/><path d="M413.69,16.47c1-.08.8,2.27,1.37,3a13.69,13.69,0,0,0,1.36-3c.22-2,.33-3.93.36-5.91,1.55-2.57,1.31,5,1.42,5.73h0a44.1,44.1,0,0,0,1.57-6c2.18-2.28.09,5.88,0,6.65h0a25.31,25.31,0,0,0,2.15-5.51c2.4-2.11-.37,6-.73,6.72v0a26.11,26.11,0,0,0,2.39-4c2.51-1.65-.88,5-1.29,5.65a19.09,19.09,0,0,1-3.84,5.72c-.77.86-3.64-.63-4-1.71a14.23,14.23,0,0,1-.47-3C413.74,19.82,412.67,17.08,413.69,16.47Z" style="fill:#f99370"/><path d="M418.93,25.93s-2.09.68-4.59-1.35A1.72,1.72,0,0,0,414,26a5.33,5.33,0,0,0,4.84,1.33A1.63,1.63,0,0,0,418.93,25.93Z" style="fill:#10325b"/><path d="M399.51,60.69h0c-15.93,1.89-22.34-8.95-22.34-8.95l23.35,2.74A14.77,14.77,0,0,1,399.51,60.69Z" style="fill:#d1a68f"/><path d="M381.79,34.28a37.93,37.93,0,0,1,6.79,4.27c2.7,2.29,6.16,4.47,9.67,4.08s7-1.88,8.91-5.78c5.68-11.16,4.17-5.39,11.34-6.42,0,0,4.43,2.92-.76,15.21S397,60,390.89,59C376.35,58.29,363.82,35.05,381.79,34.28Z" style="fill:#e8c0a6"/><path d="M351.28,162.15c-.84.75-1.7,1.5-2.6,2.24-4.5-1-8.67-8.42-8.67-8.42.7-.82,1.37-1.65,2-2.48C342,153.49,345.7,160.33,351.28,162.15Z" style="fill:#dfdee0"/><path d="M415.17,50.16a.23.23,0,0,1-.14,0,.23.23,0,0,1,0-.32,28.88,28.88,0,0,0,4.73-11.1c.93-4.63-.32-6.67-.33-6.69a.24.24,0,0,1,.07-.31.22.22,0,0,1,.3.07c.06.09,1.37,2.19.39,7a29.48,29.48,0,0,1-4.81,11.29A.23.23,0,0,1,415.17,50.16Z" style="fill:#d1a68f"/><path d="M397.72,42.93a8.57,8.57,0,0,1-1.15-.07c-3.21-.16-7.93-4-8.13-4.14a.23.23,0,0,1,0-.31.22.22,0,0,1,.31,0s4.81,3.89,7.88,4h0c.07,0,7,1,10.19-5.38a.22.22,0,0,1,.29-.1.22.22,0,0,1,.1.3,10,10,0,0,1-6.59,5.33A11.82,11.82,0,0,1,397.72,42.93Z" style="fill:#d1a68f"/></g><g id="_3" data-name="3"><polygon points="220.33 146.42 237.48 167.36 0 361.95 90.42 361.95 239.56 238.38 272.96 210.7 290.11 231.64 307.4 146.31 220.33 146.42" style="fill:#4fb0a4"/><polygon points="414.07 178.84 190.43 361.95 149.1 361.95 348.46 198.59 332.37 178.94 414.07 178.84" style="fill:#749ed1"/><polygon points="414.07 178.84 402.79 234.54 397.85 258.91 387.89 246.75 381.76 239.26 233.69 361.95 190.43 361.95 414.07 178.84" style="fill:#6990b7"/><polygon points="546.01 278.84 444.49 361.95 414.39 361.95 498.29 293.2 495.76 290.11 486.58 278.91 509.47 278.88 546.01 278.84" style="fill:#749ed1"/><polygon points="546.01 278.84 544.19 287.83 534.21 337.08 522.51 322.79 475.23 361.95 444.49 361.95 546.01 278.84" style="fill:#6990b7"/><polygon points="503.46 118.95 525.97 146.43 445.64 212.25 428.14 226.6 262.95 361.95 381.09 361.95 496.58 266.25 572.54 203.32 595.05 230.8 617.74 118.8 503.46 118.95" style="fill:#4fb0a4"/><polygon points="555.24 170.06 320.87 361.95 305.96 361.95 531.38 177.24 530.12 175.7 525.53 170.1 536.97 170.08 555.24 170.06" style="fill:#fff"/><polygon points="555.24 170.06 554.33 174.56 549.34 199.18 543.49 192.03 338.42 361.95 320.87 361.95 555.24 170.06" style="fill:#e8e8e8"/><polygon points="683.82 264 564.18 361.95 528.7 361.95 627.58 280.93 624.59 277.29 613.79 264.09 640.75 264.06 683.82 264" style="fill:#fff"/><polygon points="683.82 264 681.67 274.6 669.91 332.64 656.12 315.79 600.41 361.95 564.18 361.95 683.82 264" style="fill:#e8e8e8"/><polygon points="228.21 226.67 61.29 363.34 28.59 363.34 176.3 242.3 165.32 228.88 163.57 226.75 167.93 226.75 217.33 226.69 228.21 226.67" style="fill:#fff"/><polygon points="228.21 226.67 215.38 290.02 202.65 274.48 95.4 363.34 61.29 363.34 228.21 226.67" style="fill:#e8e8e8"/></g><g id="_1" data-name="1"><path d="M62.19,14.68c13.11,0,24.77,6.65,32.2,17,12.73-8.27,33.13-6.71,44.12,3.36,12.62-16.26,47.25.75,37.44,30.16H22.07C17.83,39.52,37.31,14.32,62.19,14.68Z" style="fill:#fff"/><path d="M663.75,27.22a24.74,24.74,0,0,0-20,10.56c-7.92-5.15-20.61-4.18-27.45,2.09-7.85-10.12-29.41.47-23.3,18.77h95.76C691.36,42.67,679.24,27,663.75,27.22Z" style="fill:#fff"/><path d="M183.73,96.56A14.44,14.44,0,0,0,172,102.73c-4.63-3-12.05-2.44-16.05,1.22-4.59-5.91-17.19.27-13.62,11h56C199.87,105.59,192.78,96.42,183.73,96.56Z" style="fill:#fff"/></g></g></g></g></g></svg>