<?xml version="1.0" encoding="UTF-8"?><svg id="_Слой_2" xmlns="http://www.w3.org/2000/svg" viewBox="0 0 526.21 133.08"><g id="_Слой_1-2"><g id="_Баннер_на_сайт"><circle cx="61.83" cy="61.83" r="61.83" style="fill:#fff;"/><path d="m135.94,118.55c.76-.03,1.44-.23,2.03-.62.59-.38.96-.97,1.12-1.78.24-1.4-.33-2.12-1.73-2.18-1.61-.06-2.6.62-2.98,2.03l-7.16.04c.09-2.03.95-3.7,2.59-5.02s3.78-2.05,6.43-2.19l.91-.02c2.88.06,5.15.67,6.81,1.83,1.66,1.17,2.44,2.77,2.34,4.81-.04,1.05-.39,2-1.05,2.85-.65.85-1.74,1.65-3.27,2.42,1.04.47,1.79,1.16,2.28,2.06.48.9.71,1.91.68,3.03-.12,2.34-1.23,4.15-3.34,5.41-2.11,1.26-4.68,1.86-7.68,1.8-2.62-.03-4.76-.7-6.42-2.03-1.66-1.32-2.51-3.11-2.54-5.35l7.01.02c0,1.44.91,2.16,2.72,2.16.83-.01,1.57-.24,2.2-.68.63-.44,1.02-1.09,1.17-1.95.27-1.55-.45-2.36-2.16-2.42l-3.34-.02.76-4.23,2.63.02Z" style="fill:#fff;"/><path d="m160.1,132.6c-.2-.56-.3-1.27-.3-2.11-1.6,1.76-3.5,2.6-5.72,2.55-2.03-.03-3.71-.7-5.05-2.03-1.34-1.32-1.96-2.93-1.88-4.81.07-2.53,1.13-4.48,3.17-5.84,2.04-1.36,4.83-2.04,8.37-2.04l2.37.04.26-1.32.09-1.14c-.06-1.31-.71-1.99-1.96-2.03-1.55-.03-2.51.83-2.87,2.57l-7.12.02c.07-1.57.58-2.93,1.53-4.09.95-1.16,2.24-2.05,3.87-2.68,1.63-.63,3.37-.92,5.21-.87,1.77.04,3.32.41,4.65,1.11s2.33,1.67,2.99,2.91c.66,1.24.91,2.68.75,4.3l-1.75,10.98-.11,1.34c-.06,1.06.08,1.97.41,2.72l-.02.41h-6.9Zm-4.06-4.7c1.45.06,2.73-.58,3.82-1.92l.71-3.75-1.83-.02c-1.14.03-2.11.36-2.93,1s-1.3,1.51-1.45,2.62c-.07.59.04,1.08.33,1.46.29.38.74.59,1.35.61Z" style="fill:#fff;"/><path d="m185.18,110.57c2.83.06,5,1.11,6.49,3.15s2.11,4.65,1.86,7.81c-.33,3.6-1.63,6.43-3.91,8.51-2.27,2.08-5.07,3.09-8.39,3.03-2.16-.06-3.99-.62-5.5-1.68-1.51-1.06-2.61-2.54-3.3-4.42-.69-1.88-.91-3.96-.67-6.24l.06-.45v-.09l.22-1.51c.79-4.99,2.23-8.9,4.32-11.73,2.09-2.83,4.8-4.61,8.13-5.36l1.47-.3c1.75-.37,2.75-1.17,2.98-2.37h5.74c-.07,2.16-.77,3.87-2.09,5.14-1.32,1.27-3.65,2.2-6.97,2.81-1.61.29-2.99.92-4.13,1.91s-2.16,2.47-3.05,4.46c2.07-1.83,4.32-2.71,6.75-2.65Zm-1.77,5.57c-1.31-.04-2.38.42-3.2,1.4-.83.98-1.33,2.34-1.52,4.08l-.02.45c-.06.6-.07,1.22-.04,1.83.03,1.09.3,1.96.82,2.59.52.63,1.26.96,2.22.97,1.31.04,2.38-.43,3.23-1.41.84-.99,1.36-2.49,1.54-4.52l.04-1.83c-.06-1.12-.35-1.99-.86-2.61-.52-.62-1.25-.94-2.2-.95Z" style="fill:#fff;"/><path d="m208.5,108.82c2.09.03,3.89.55,5.42,1.56s2.64,2.43,3.36,4.24.97,3.83.77,6.04l-.04.47c-.4,3.58-1.73,6.47-3.99,8.67-2.26,2.2-5.05,3.27-8.37,3.22-2.07-.03-3.86-.54-5.37-1.54-1.51-1-2.63-2.4-3.36-4.2-.73-1.8-.99-3.8-.79-6,.36-3.83,1.67-6.88,3.94-9.15s5.08-3.38,8.45-3.32Zm-5.29,12.48l-.06,1.27c-.2,3.2.78,4.83,2.93,4.89,2.79.09,4.41-2.18,4.85-6.79l.09-1.96c.03-1.29-.21-2.32-.72-3.09-.51-.77-1.26-1.17-2.25-1.2-1.31-.04-2.38.49-3.23,1.6-.84,1.11-1.38,2.87-1.61,5.27Z" style="fill:#fff;"/><path d="m241.49,114.82h-7.14l-3.09,17.78h-7.14l3.09-17.78h-7.03l.97-5.57h21.32l-.97,5.57Z" style="fill:#fff;"/><path d="m251.74,115.66l2.7.02c3.14.01,5.6.78,7.4,2.29,1.8,1.51,2.62,3.54,2.46,6.08-.14,2.59-1.28,4.66-3.4,6.21-2.12,1.55-4.87,2.33-8.23,2.33h-10.98l4.03-23.35h7.14l-1.12,6.41Zm-.95,5.59l-1.01,5.78,3.19.02.75-.06c2.03-.29,3.21-1.27,3.54-2.96.16-.94-.01-1.62-.51-2.05-.5-.43-1.18-.67-2.04-.71l-3.93-.02Zm22.51,11.35h-7.14l4.06-23.35h7.14l-4.06,23.35Z" style="fill:#fff;"/><path d="m302.49,108.82c2.09.03,3.89.55,5.42,1.56s2.64,2.43,3.36,4.24.97,3.83.77,6.04l-.04.47c-.4,3.58-1.73,6.47-3.99,8.67-2.26,2.2-5.05,3.27-8.37,3.22-2.07-.03-3.86-.54-5.37-1.54-1.51-1-2.63-2.4-3.36-4.2-.73-1.8-.99-3.8-.79-6,.36-3.83,1.67-6.88,3.94-9.15s5.08-3.38,8.45-3.32Zm-5.29,12.48l-.06,1.27c-.2,3.2.78,4.83,2.93,4.89,2.79.09,4.41-2.18,4.85-6.79l.09-1.96c.03-1.29-.21-2.32-.72-3.09-.51-.77-1.26-1.17-2.25-1.2-1.31-.04-2.38.49-3.23,1.6-.84,1.11-1.38,2.87-1.61,5.27Z" style="fill:#fff;"/><path d="m335.31,124.44h-2.24l-1.42,8.16h-7.1l4.03-23.35h7.12l-1.47,8.39h1.83l5.07-8.39,9.45.02-8.91,10.77.13-.02,5.09,12.58h-9.34l-2.24-8.16Z" style="fill:#fff;"/><path d="m373.18,109.25l-4.06,23.35h-7.1l3.09-17.74h-4.16l-1.81,8.37c-.78,3.18-1.91,5.52-3.4,7.02-1.49,1.5-3.33,2.28-5.53,2.34h-3.02l.73-5.55.65-.04c1.93-.19,3.29-1.86,4.08-5.03l2.61-12.73h17.93Z" style="fill:#fff;"/><path d="m390.23,109.25h7.27l-4.06,23.35h-7.12l2.31-13.14-8.31,13.14h-7.31l4.06-23.35h7.14l-2.29,13.1,8.31-13.1Z" style="fill:#fff;"/><path d="m409.02,133.03c-2.09-.01-3.95-.51-5.58-1.48-1.63-.97-2.87-2.32-3.7-4.06-.83-1.73-1.17-3.64-.99-5.73l.06-.6c.39-3.84,1.72-6.88,4-9.12s5.07-3.31,8.38-3.23c2,.03,3.71.54,5.14,1.52,1.42.99,2.47,2.35,3.13,4.08s.88,3.68.65,5.85l-.41,2.96h-13.9c.03,1.22.37,2.22,1.04,2.98.66.76,1.63,1.17,2.89,1.21,2.06.06,3.91-.73,5.55-2.37l2.98,3.94c-.88,1.25-2.1,2.23-3.68,2.94s-3.3,1.08-5.17,1.11h-.39Zm1.73-18.6c-1.01-.03-1.88.29-2.62.94-.74.66-1.38,1.76-1.93,3.31h7.1l.13-.62c.09-.5.1-.97.04-1.42-.25-1.43-1.15-2.17-2.72-2.21Z" style="fill:#fff;"/><path d="m441.17,132.6h-7.12l1.51-8.63h-6.13l-1.51,8.63h-7.1l4.06-23.35h7.1l-1.58,9.11h6.13l1.58-9.11h7.12l-4.06,23.35Z" style="fill:#fff;"/><path d="m468.19,114.82h-7.14l-3.09,17.78h-7.14l3.08-17.78h-7.03l.97-5.57h21.32l-.97,5.57Z" style="fill:#fff;"/><path d="m480.73,132.6c-.2-.56-.3-1.27-.3-2.11-1.6,1.76-3.5,2.6-5.72,2.55-2.03-.03-3.71-.7-5.05-2.03-1.34-1.32-1.96-2.93-1.88-4.81.07-2.53,1.13-4.48,3.17-5.84,2.04-1.36,4.83-2.04,8.37-2.04l2.37.04.26-1.32.09-1.14c-.06-1.31-.71-1.99-1.96-2.03-1.55-.03-2.51.83-2.87,2.57l-7.12.02c.07-1.57.58-2.93,1.53-4.09.95-1.16,2.24-2.05,3.87-2.68s3.37-.92,5.21-.87c1.77.04,3.32.41,4.65,1.11,1.33.7,2.33,1.67,2.99,2.91.66,1.24.91,2.68.75,4.3l-1.75,10.98-.11,1.34c-.06,1.06.08,1.97.41,2.72l-.02.41h-6.91Zm-4.06-4.7c1.45.06,2.73-.58,3.82-1.92l.71-3.75-1.83-.02c-1.14.03-2.11.36-2.93,1s-1.3,1.51-1.45,2.62c-.07.59.04,1.08.33,1.46.29.38.74.59,1.35.61Z" style="fill:#fff;"/><path d="m502.41,115.64l4.29-6.39h7.68l-7.96,11.7,4.27,11.65h-7.08l-2.46-6.86-4.55,6.86h-7.77l8.37-12.3-4.08-11.05h7.14l2.14,6.39Z" style="fill:#fff;"/><path d="m513.57,129.47c-.03-1.05.34-1.95,1.1-2.69.76-.74,1.71-1.11,2.83-1.11s2.03.34,2.76,1.01,1.11,1.52,1.14,2.52c.03,1.08-.34,1.98-1.1,2.71s-1.71,1.09-2.83,1.09-1.99-.33-2.74-1-1.14-1.51-1.17-2.54Zm8.03-6.82h-5.76l2.83-21.47h7.55l-4.62,21.47Z" style="fill:#fff;"/><path d="m64.66,47.91c0,3.02-1.22,6-3.67,8.94-1.39,1.63-3.84,3.92-7.34,6.85-.49.41-4.57,3.18-12.24,8.32-6.61,4.49-10,7.1-10.16,7.83h3.43c1.55-.08,2.73-.12,3.55-.12,5.39,0,9.06.78,11.02,2.33.41.33.61.65.61.98,0,.24-.12.37-.37.37-.16,0-.45-.08-.86-.25-2.69-1.39-5.31-2.08-7.83-2.08-4.24,0-9.55,1.1-15.91,3.3-4.16,1.39-6.16,2.08-6,2.08-.81,0-1.22-.73-1.22-2.2,0-.9,1.88-2,5.63-3.3,2.86-1.06,6.04-2.65,9.55-4.77,5.55-3.34,11.26-7.63,17.14-12.85,8.08-7.1,12.12-12.52,12.12-16.28,0-3.26-1.59-4.9-4.77-4.9-5.47,0-12.57,5.31-21.3,15.91-.24.33-.53.49-.86.49-.41,0-.61-.25-.61-.73v-.25c.57-2.85,2.86-6.12,6.85-9.79,3.75-3.43,7.14-5.51,10.16-6.24,1.96-.41,3.75-.61,5.39-.61,5.14,0,7.71,2.33,7.71,6.98Z" style="fill:#00b2a5;"/><path d="m108.73,39.1c0,.33-1.45,1.41-4.35,3.24-2.9,1.84-4.79,2.96-5.69,3.37,1.06,2.45,1.59,4.24,1.59,5.39,0,.73-.2,1.1-.61,1.1-.49,0-1.71-1.59-3.67-4.77-.82.08-3.92,2.06-9.3,5.94-5.39,3.88-8.12,6.1-8.2,6.67,1.96,3.43,2.94,6.53,2.94,9.3,0,4.41-1.71,8.45-5.14,12.12-3.43,3.67-7.34,5.51-11.75,5.51s-6.61-2.24-6.61-6.73c0-3.43,2.08-7.22,6.24-11.38.65-.73,4.12-3.75,10.4-9.06-1.31-2.69-1.96-5.18-1.96-7.47,0-3.59,1.63-6.61,4.9-9.06,3.02-2.28,6.36-3.43,10.04-3.43,1.88,0,3.75.37,5.63,1.1,2.28.82,3.83,1.92,4.65,3.3,5.96-3.51,9.5-5.26,10.65-5.26.16,0,.24.04.24.12Zm-29.99,31.82c0-1.96-1.14-4.9-3.43-8.81-2.77,1.63-5.75,4.45-8.94,8.45-3.67,4.41-5.51,7.92-5.51,10.53,0,3.02,1.39,4.53,4.16,4.53,3.34,0,6.47-1.61,9.36-4.83,2.9-3.22,4.35-6.51,4.35-9.85Zm16.52-25.34c-1.31-2.77-4-4.16-8.08-4.16-2.94,0-5.55.82-7.83,2.45-2.61,1.8-3.92,4.08-3.92,6.85,0,1.55.73,3.92,2.2,7.1,2.94-2.2,8.81-6.28,17.63-12.24Z" style="fill:#00b2a5;"/><path d="m166.86,64.68c-2.69,3.51-5.26,6.81-7.71,9.91-2.45,3.1-4.49,5.47-6.12,7.1-2.29,2.2-4.45,3.63-6.49,4.28-2.04.65-3.75.63-5.14-.06-1.39-.69-2.39-2.04-3-4.04-.61-2-.63-4.59-.06-7.77.24-1.55.69-2.61,1.35-3.18.65-.57,1.35-.86,2.08-.86s1.39.23,1.96.67c.57.45.94.96,1.1,1.53-1.31,3.35-1.94,6.04-1.9,8.08.04,2.04.61,3.26,1.71,3.67,1.1.41,2.63-.06,4.59-1.41,1.96-1.35,4.16-3.73,6.61-7.16.49-.65,1.41-1.9,2.75-3.73,1.35-1.84,3.2-4.06,5.57-6.67.81-.98,1.59-1.88,2.33-2.69.73-.81,1.92-2.12,3.55-3.92.57-.57,1.22-.86,1.96-.86,1.88,0,2.81.94,2.81,2.82,0,.41-.16.9-.49,1.47-4.57,7.51-6.85,13.46-6.85,17.87,0,3.1,1.47,4.65,4.41,4.65,2.28,0,4.73-1.18,7.34-3.55,1.79-1.55,3.71-3.75,5.75-6.61,1.71-2.37,2.69-3.55,2.94-3.55s.37.24.37.73c0,.57-.24,1.27-.73,2.08-5.55,9.22-11.3,13.83-17.26,13.83-4.65,0-6.98-2.94-6.98-8.81,0-5.14,1.18-9.75,3.55-13.83Z" style="fill:#f6ce98;"/><path d="m214.96,72.27c0,.16-.08.41-.24.73-2.04,3.18-5.1,6.12-9.18,8.81-4.33,2.86-8.28,4.28-11.87,4.28-5.14,0-7.71-3.22-7.71-9.67,0-4.24,1.84-8.89,5.51-13.95,3.92-5.39,7.96-8.08,12.12-8.08.81,0,1.53.37,2.14,1.1.61.73.92,1.51.92,2.33,0,2.53-1.92,5.59-5.75,9.18-3.43,3.18-6.57,5.31-9.42,6.36-.57,2.04-.86,3.75-.86,5.14,0,3.35,1.51,5.02,4.53,5.02,2.85,0,6.08-1.18,9.67-3.55,3.1-2.04,5.75-4.36,7.96-6.98.57-.81,1.14-1.22,1.71-1.22.33,0,.49.16.49.49Zm-12-12.97c0-.98-.49-1.47-1.47-1.47-1.22,0-3.02,1.88-5.39,5.63-2.04,3.18-3.3,5.67-3.79,7.47,2.12-.9,4.32-2.49,6.61-4.77,2.69-2.61,4.04-4.9,4.04-6.85Z" style="fill:#f6ce98;"/><path d="m262.21,72.02c0,.33-.08.57-.25.73-2.04,2.86-4.33,5.51-6.85,7.96-3.51,3.26-6.45,4.9-8.81,4.9-3.84,0-5.75-4.24-5.75-12.73,0-1.3.04-2.77.12-4.41-2.94,2.61-6.24,7.3-9.91,14.08-1.22,2.29-2.57,3.43-4.04,3.43-.49,0-.86-.16-1.1-.49-.24-.9-.37-2.04-.37-3.43,0-2.37.53-6.69,1.59-12.97.57-3.18.86-5.22.86-6.12,0-.65-.12-.98-.37-.98-1.39,1.22-3.63,3.88-6.73,7.96-3.35,4.41-6.94,9.59-10.77,15.54-.49.73-.9,1.1-1.22,1.1-.65,0-.98-.73-.98-2.2,0-.41.04-.73.12-.98,1.88-4.41,3.79-10.61,5.75-18.6.16-1.14.49-2.77.98-4.9.16-.57.71-1.14,1.65-1.71.94-.57,1.73-.86,2.39-.86.57,0,.86.24.86.73,0,.82-1.92,7.02-5.75,18.6,2.94-3.92,5.96-7.96,9.06-12.12.98-1.3,2.45-3.26,4.41-5.88,1.22-1.47,2.49-2.2,3.79-2.2s1.96.73,1.96,2.2c0,1.06-.29,3.16-.86,6.3-.57,3.14-1.22,7.73-1.96,13.77,2.28-3.26,5.83-8.04,10.65-14.32,1.3-1.55,2.61-2.33,3.92-2.33,1.22,0,1.84.78,1.84,2.33,0,1.31-.2,3.24-.61,5.81-.41,2.57-.61,4.51-.61,5.81,0,4.24,1.1,6.36,3.3,6.36,3.1,0,7.06-3.43,11.87-10.28.49-.81.9-1.22,1.22-1.22.41,0,.61.37.61,1.1Zm-12.36-22.77c-10.28-2.45-17.83-2.33-22.64.37-.9.49-1.63,1.27-2.2,2.33-.24.57-.37,1.35-.37,2.33s-.12,1.71-.37,2.2l-.49.37c-.82.57-1.16-.02-1.04-1.77.12-1.75.51-3.24,1.16-4.47.81-1.88,2.2-3.3,4.16-4.28,3.59-2.12,8.32-2.94,14.2-2.45,1.47,0,6.4.69,14.81,2.08,5.14.9,8.53.9,10.16,0,.98-.57,1.67-1.3,2.08-2.2.49-1.06.59-2.04.31-2.94-.29-.9-.27-1.67.06-2.33l.25-.12c.65-.41.96.41.92,2.45-.04,2.04-.31,3.55-.8,4.53-1.22,2.37-2.53,4-3.92,4.9-2.04,1.14-5.26,1.35-9.67.61-.49-.24-1.47-.45-2.94-.61-.65,0-1.88-.33-3.67-.98Z" style="fill:#f6ce98;"/></g></g></svg>