<svg id="Слой_1" data-name="Слой 1" xmlns="http://www.w3.org/2000/svg" viewBox="0 0 1062 1063"><defs><style>.cls-1{fill:#4dcedf;}.cls-2{fill:#fefefe;}.cls-3{fill:#d2f2f6;}.cls-4{fill:#8adfea;}.cls-5{fill:#7bdbe7;}.cls-6{fill:#a7e7ee;}.cls-7{fill:#d3f3f6;}.cls-8{fill:#fcfcfc;}.cls-9{fill:#1184df;}</style></defs><path class="cls-1" d="M556.51.94A489.52,489.52,0,0,1,699.72,26.47c61.68,20.82,117.25,52.58,167,94.46,50.34,42.34,93,91.25,126.12,148.24a497.22,497.22,0,0,1,60.19,165.9,557,557,0,0,1,7.49,118.23c-3,74.15-19.62,145-52.63,211.7a511.89,511.89,0,0,1-68.14,103.51c-35,41.4-74.76,77.54-120,107.55a503,503,0,0,1-188.19,76.09c-43.41,8.08-87.15,10.44-131.1,8.35-71.08-3.36-138.89-20.21-202.78-51.81A517.78,517.78,0,0,1,191.49,938.4c-43.75-37.24-81.84-79.42-112.62-128A497.91,497.91,0,0,1,10,635.12a557.32,557.32,0,0,1-9-74.63c-.7-1.64-.22-3.36-.36-5v-5.91c-.28-3,.59-6.11-.51-9.08v-27c1.13-4.81.2-9.7.51-14.54v-5c0-32.52,6-64.16,13.94-95.51A498.36,498.36,0,0,1,52.22,297.67a545.3,545.3,0,0,1,76.25-114.9A532,532,0,0,1,265,70.39,511.87,511.87,0,0,1,404.61,15,563.15,563.15,0,0,1,480.9,2.65C498.81,1,516.73.59,534.69.61,542,.81,549.25.19,556.51.94Z"/><path class="cls-2" d="M533.44,1A633.31,633.31,0,0,0,424.51,12.1c-72.73,14.07-139.12,43-199.69,85.46a525,525,0,0,0-79.61,68.64A538,538,0,0,0,60,285.61,516.78,516.78,0,0,0,9.52,426.32,469.64,469.64,0,0,0,1,493.49c-.27.5-.56.48-.87,0Q.1,249.06,0,4.59C0,.84.84,0,4.59,0Q269,.17,533.49.09c.33.21.44.41.31.6S533.57,1,533.44,1Z"/><path class="cls-3" d="M533.44,1a6.35,6.35,0,0,0,0-.87h23c0,.29,0,.57,0,.85Z"/><path class="cls-4" d="M1.05,498.48c-.37,5,1.12,10.13-.95,15v-15C.4,498.09.71,498.05,1.05,498.48Z"/><path class="cls-5" d="M.1,540.47c2,2.83.59,6,1,9-.33.42-.65.41-.95,0Z"/><path class="cls-6" d="M.1,549.46a7.55,7.55,0,0,1,1,0c0,2,0,4,0,6-.33.41-.63.4-.91,0Z"/><path class="cls-7" d="M1.05,498.48l-.48,0H.1v-5l.87,0C1,495.15,1,496.81,1.05,498.48Z"/><path class="cls-7" d="M.1,555.46c.3,0,.61,0,.91,0,0,1.66,0,3.33,0,5l-.87,0Z"/><path class="cls-8" d="M527.76,1006.06c-248,6.07-480.71-213.28-472.44-482.87C55.68,273.16,268,54.54,532,54.76c255.56.21,475.65,214,474.13,477.46C1004.63,793.13,789.81,1011.16,527.76,1006.06Z"/><path class="cls-9" d="M951.55,521.47c2.1,4.56,1.75,9.06,1.66,13.44-1.33,63.73-14.94,124.6-43.65,181.69-41.33,82.15-102.33,145.19-184.2,187.62-38.64,20-79.29,34.1-122.27,41.24a434.46,434.46,0,0,1-125.24,2.78C390.2,937.39,313.57,902.18,248,843.31,179.56,781.94,136.23,705.85,116.8,616.13c-6.5-30-8.91-60.49-8.79-91.17,0-4,.46-8,.79-11.94.11-1.23-.36-2.9,1.38-3.35,1.32-.34,2,.95,2.85,1.7q18.85,16.74,37.69,33.49c9.7,8.61,19.52,17.11,29.09,25.86,2.85,2.6,4.39,2.57,7.18-.3,18.9-19.45,37.63-39.19,58.77-56.19C277.09,489,329,501.31,340.91,544.87a70.55,70.55,0,0,1,1.6,8.8c.72,5.16,1.77,6.05,6.85,4.57,11.29-3.3,22.47-2.51,33.32,1.39,20.71,7.46,33.12,22.51,38.75,43.57.73,2.69-1.69,6.53,2.07,8,2.65,1,5.52-.69,8.28-1.21,32.19-6,64.6,17.17,68.76,49.32,1,7.81,1.18,7.93,9.09,6.64,30.16-4.91,59.3,13.19,67.08,42.13,4.61,17.15,2.38,33.68-6.82,49-1.68,2.79-1.48,4.19,1,6.06,3.94,3,7.57,6.52,11.54,9.53,17,12.9,39.68,10.66,54-5.24s14.6-39.82-.94-54.57c-15.06-14.29-31.41-27.23-47.29-40.66-17.52-14.83-35.16-29.54-52.75-44.29-2.18-1.83-4.38-3.69-4.9-6.69-.8-4.59-.84-9.06,3.65-12,4.28-2.84,10.77-2.43,15.39,1.33,7.49,6.08,14.76,12.44,22.16,18.63q52.41,43.93,104.87,87.8c6.81,5.69,14.15,10.57,23.37,11.45,16.24,1.54,29.07-4.75,38.09-18s9.11-27.42,2-41.64a41.9,41.9,0,0,0-10.94-13.47q-44-36.82-88-73.67c-16-13.32-32.07-26.48-48.08-39.76a44.05,44.05,0,0,1-5.79-5.46c-3.92-4.71-4.19-10.58-1-14.67a12.18,12.18,0,0,1,15.32-3.08c7.57,4,13.49,10.25,20,15.68,50.41,42.17,100.91,84.24,150.92,126.88,25.54,21.77,59.73,9,67.08-18.84,4.63-17.48-1-31.87-14.51-43.2-44.52-37.29-89.22-74.36-133.75-111.64q-35-29.31-69.61-59.12c-3.6-3.1-5.7-2.26-8.8.32-31.32,26.13-63.44,51.24-97.92,73.1-31.5,20-76.16,23.9-110.81-4.93-23-19.17-32.82-43.69-28.3-73.57a14.2,14.2,0,0,1,5-9.43c20.67-17.05,39.89-35.73,59.8-53.63q42.12-37.87,84.37-75.61c3.13-2.78,2.38-3.78-.63-5.45-14.83-8.21-31.05-9.81-47.4-9-48,2.47-94.17,14.42-139.71,28.94-11.58,3.69-23.38,3.68-35,3.18-14.4-.61-28.8-2.68-43.05-5-12.95-2.16-24.26-8.86-35.61-15.15q-10.68-5.92-21.56-11.48c-2.57-1.32-3.56-2.21-1.27-5,64-78.29,145-129.62,244.36-149.17,129.09-25.4,246.22,2.8,349.87,84.32,25.84,20.32,48.62,43.92,69,69.74,2.44,3.08,2.33,4.95-1.14,7.09C830.27,297.72,795,306.28,757,301.86a333.18,333.18,0,0,1-98.22-26.66c-19-8.48-38.58-14.42-59.77-13.31A42.65,42.65,0,0,0,570.8,273.7c-44,40.87-88.35,81.35-132.52,122-9.06,8.34-18,16.79-27.55,24.59-5.18,4.24-7,9.92-6.93,16.39.42,27.42,23.23,51.4,50.71,53.92,20.45,1.88,37.87-5.52,54-16.81,34.5-24.15,68.11-49.48,100.25-76.72a22.46,22.46,0,0,0,1.79-1.73c4.08-4.33,5.36-4.55,9.94-.65q16.54,14.07,32.89,28.37Q740,498.41,826.6,573.75c4.39,3.83,8.69,7.76,13,11.71a37.9,37.9,0,0,0,7.61,5.62c9.68,5.2,15.27,4.65,23.7-2.39Q908.81,557,946.71,525.3C948.21,524.05,949.78,522.87,951.55,521.47Z"/><path class="cls-8" d="M341.59,733.56c-.79-10.57,3.59-19.29,11.05-26.57,20.36-19.88,39.55-40.89,59.43-61.24,11.36-11.62,24.74-17.09,40.68-11.21,16.49,6.08,25.24,18.91,26.33,36.05.57,9-3.13,17.6-9.77,24.35-21.35,21.71-43,43.17-64,65.16-21.82,22.78-53.21,10-62.23-14.05C341.57,742.05,341.42,737.93,341.59,733.56Z"/><path class="cls-8" d="M181.79,627.82c-.64-11,3.49-19.71,10.59-27.39,20.56-22.23,42.36-43.25,63.91-64.49,15.37-15.15,37.34-14.09,52.88,1.9,13.69,14.08,13.26,37-1.22,51.73-17,17.34-34.22,34.46-51.24,51.76-5.13,5.21-9.81,10.85-15.6,15.4-15,11.79-37,9.92-49.45-4.6C185.64,645.12,180.5,637.49,181.79,627.82Z"/><path class="cls-8" d="M455.88,826.38c-16.31-.25-27.12-9.11-33.8-23-6.47-13.47-4.84-26.42,5.13-38.06,12.91-15.07,27.68-28.28,41.43-42.51,7.63-7.9,15-16,22.78-23.78,10-10,22.29-14.57,36-10.55,15.27,4.49,25.75,15.08,28.26,31.13,2.19,14.09-3.93,25.9-13.88,35.81Q511.88,785.13,482.12,815C474.88,822.26,466.45,826.67,455.88,826.38Z"/><path class="cls-8" d="M395.83,619.51a37,37,0,0,1-10.81,27q-32,32.58-64.16,64.91c-11.68,11.73-32,13.06-45.38,3.22-15.76-11.6-20.9-28.95-13.57-46.14,3.08-7.23,8.82-12.5,14.24-17.8,19.27-18.83,37.61-38.55,56.68-57.56,11-11,25.86-14,39.47-8.24C386.48,590.9,395.79,604.61,395.83,619.51Z"/><path class="cls-8" d="M497.42,830.71l51.3-49.27c6.2,10.47,3.4,26.32-6.52,37.68C529.59,833.56,514,837.75,497.42,830.71Z"/></svg>