<?xml version="1.0" encoding="iso-8859-1"?>
<!-- Generator: Adobe Illustrator 19.0.0, SVG Export Plug-In . SVG Version: 6.00 Build 0)  -->
<svg version="1.1" id="Capa_1" xmlns="http://www.w3.org/2000/svg" xmlns:xlink="http://www.w3.org/1999/xlink" x="0px" y="0px"
	 viewBox="0 0 466.025 466.025" style="enable-background:new 0 0 466.025 466.025;" xml:space="preserve">
<path style="fill:#4DCFE0;" d="M383.478,344.816v1.567c0,34.482-28.212,62.694-62.694,62.694h-28.212
	c-5.224-18.286-22.465-31.869-42.318-31.869h-17.241c-24.555,0-44.408,19.853-44.408,44.408c0,24.555,19.853,44.408,44.408,44.408
	h17.241c17.763,0,32.914-10.449,40.229-25.6h30.302c51.722,0,94.041-42.318,94.041-94.041v-1.567H383.478z M250.253,434.678h-17.241
	c-6.792,0-13.061-6.269-13.061-13.061c0-6.792,6.269-13.061,13.061-13.061h17.241c6.792,0,13.061,6.269,13.061,13.061
	C263.314,428.931,257.567,434.678,250.253,434.678z"/>
<path style="fill:#1185E0;" d="M414.825,201.665v-19.853C414.825,81.502,333.322,0,233.012,0S51.2,81.502,51.2,181.29v20.376
	c-18.808,5.747-32.392,23.51-32.392,44.408v67.918c0,26.122,20.898,47.02,47.02,47.02h19.331c2.09,5.747,7.837,9.927,14.629,9.927
	l54.857,0.522l0,0c4.18,0,7.837-1.567,10.971-4.702c3.135-3.135,4.702-6.792,4.702-10.971v-151.51
	c0-8.882-6.792-15.673-15.673-15.673H99.788c-6.792,0-12.539,4.18-14.629,10.449h-2.612V181.29
	c0-82.547,67.396-149.943,150.465-149.943s150.465,67.396,150.465,150.465v17.241h-2.09c-2.09-6.269-7.837-10.449-14.629-10.449
	h-55.38c-8.882,0-15.673,6.792-15.673,15.673v150.988c0,8.882,6.792,15.673,15.673,15.673h55.38c6.792,0,12.016-4.18,14.629-9.927
	h18.808c26.122,0,47.02-20.898,47.02-47.02v-67.918C447.216,225.176,433.633,207.412,414.825,201.665z M115.461,219.951h23.51
	v120.163h-23.51V219.951z M50.155,313.992v-67.918c0-8.882,6.792-15.673,15.673-15.673h18.286v99.265H65.829
	C56.947,329.665,50.155,322.873,50.155,313.992z M351.086,339.592h-24.033V219.951h24.033V339.592z M415.869,313.992
	c0,8.882-6.792,15.673-15.673,15.673h-17.763V230.4h17.763c8.882,0,15.673,6.792,15.673,15.673V313.992z"/>
<g>
</g>
<g>
</g>
<g>
</g>
<g>
</g>
<g>
</g>
<g>
</g>
<g>
</g>
<g>
</g>
<g>
</g>
<g>
</g>
<g>
</g>
<g>
</g>
<g>
</g>
<g>
</g>
<g>
</g>
</svg>
