<?xml version="1.0" encoding="UTF-8"?><svg id="Illustration" xmlns="http://www.w3.org/2000/svg" xmlns:xlink="http://www.w3.org/1999/xlink" viewBox="0 0 3710 3710"><defs><style>.cls-1{font-family:Bahnschrift-Bold, Bahnschrift;font-size:1019.63px;font-variation-settings:'wght' 700, 'wdth' 100;font-weight:700;}.cls-1,.cls-2,.cls-3{fill:#f8b25d;}.cls-4{fill:url(#linear-gradient-2);}.cls-5{fill:url(#_Безымянный_градиент_45);}.cls-6,.cls-7,.cls-8,.cls-9{fill:#fff;}.cls-2,.cls-8{opacity:.53;}.cls-10{fill:url(#_Безымянный_градиент_60);}.cls-11{fill:#da371e;}.cls-12{fill:#251000;}.cls-13{fill:url(#_Безымянный_градиент_77);}.cls-14{fill:url(#_Безымянный_градиент_56);}.cls-15{fill:url(#linear-gradient-6);}.cls-16{fill:#32a5a5;}.cls-17{fill:#787878;}.cls-18{fill:#ebd7a0;}.cls-7{opacity:.72;}.cls-19{fill:url(#linear-gradient-5);}.cls-20{fill:url(#linear-gradient-3);}.cls-21{fill:url(#linear-gradient);}.cls-9{opacity:.78;}.cls-22{fill:url(#linear-gradient-4);}.cls-23{fill:#277f7e;}</style><linearGradient id="_Безымянный_градиент_60" x1="1201" y1="2619.16" x2="2204.25" y2="2619.16" gradientUnits="userSpaceOnUse"><stop offset="0" stop-color="#32a5a5"/><stop offset="1" stop-color="#2c8c8c"/></linearGradient><linearGradient id="_Безымянный_градиент_77" x1="605.01" y1="2794.53" x2="1537.91" y2="2794.53" gradientUnits="userSpaceOnUse"><stop offset="0" stop-color="#32a5a5"/><stop offset="1" stop-color="#2a8888"/></linearGradient><linearGradient id="_Безымянный_градиент_45" x1="2220.67" y1="2342.32" x2="2185.16" y2="3219.94" gradientUnits="userSpaceOnUse"><stop offset="0" stop-color="#4d4d4d"/><stop offset="1" stop-color="#b3b3b3"/></linearGradient><linearGradient id="_Безымянный_градиент_56" x1="2309.41" y1="1717.28" x2="2242.3" y2="2290.29" gradientUnits="userSpaceOnUse"><stop offset="0" stop-color="#666"/><stop offset="1" stop-color="#ccc"/></linearGradient><linearGradient id="linear-gradient" x1="5201.08" y1="-252.67" x2="4951.49" y2="302.72" gradientTransform="translate(-3607.99 -192.4) rotate(15.59)" gradientUnits="userSpaceOnUse"><stop offset="0" stop-color="#febbba"/><stop offset="1" stop-color="#ff928e"/></linearGradient><linearGradient id="linear-gradient-2" x1="-5540.52" y1="1996.39" x2="-5343.99" y2="1996.39" gradientTransform="translate(-4286.53) rotate(-180) scale(1 -1)" xlink:href="#linear-gradient"/><linearGradient id="linear-gradient-3" x1="-5659.78" y1="2011.01" x2="-5545.97" y2="2011.01" gradientTransform="translate(-4286.53) rotate(-180) scale(1 -1)" xlink:href="#linear-gradient"/><linearGradient id="linear-gradient-4" x1="-5625.28" y1="1266.51" x2="-5555.63" y2="1266.51" gradientTransform="translate(-4286.53) rotate(-180) scale(1 -1)" xlink:href="#linear-gradient"/><linearGradient id="linear-gradient-5" x1="-5514.59" y1="1176.51" x2="-5007.66" y2="1210.98" gradientTransform="translate(-4286.53) rotate(-180) scale(1 -1)" xlink:href="#linear-gradient"/><linearGradient id="linear-gradient-6" x1="-4341.02" y1="1241.64" x2="-3980.3" y2="1782.72" gradientTransform="translate(-2816.43) rotate(-180) scale(1 -1)" xlink:href="#linear-gradient"/></defs><path class="cls-6" d="m3070.72,2829.67c-56.63,59.61-110.21,98.06-152.54,128.43-497.6,357.04-1086.4,252.96-1211.54,227.55-184.79-37.53-541.98-110.08-800.22-413.76-390.7-459.45-329.86-1183.3-26.81-1661.13,55.43-87.4,348.24-572.51,943.38-650.3,360.17-47.08,780.02,47.88,1084.06,302.6,638.21,534.69,592.77,1614.86,163.66,2066.62Z"/><path class="cls-18" d="m1412.26,2163.95h227.37c15.89,0,28.78,12.9,28.78,28.78v977.22c0,15.89-12.9,28.78-28.78,28.78h-227.37c-15.89,0-28.78-12.9-28.78-28.78v-977.22c0-15.89,12.9-28.78,28.78-28.78Z"/><path class="cls-18" d="m2366.7,2040.22h-226.82c-15.9,0-29.06,15.29-29.06,33.1v1091.18c0,17.81,13.16,34.23,29.06,34.23h226.82c15.9,0,32.81-16.42,32.81-34.23v-1091.18c0-17.81-16.92-33.1-32.81-33.1Z"/><rect class="cls-18" x="1739.65" y="1841.51" width="284.94" height="1357.22" rx="28.78" ry="28.78"/><rect class="cls-18" x="2973.14" y="1380.36" width="284.94" height="1818.37" rx="28.78" ry="28.78"/><rect class="cls-18" x="2549.48" y="1631.56" width="284.94" height="1567.17" rx="28.78" ry="28.78"/><path class="cls-16" d="m2378.43,2996.5l527.92-1011.38h-108.16c-19.95,0-30.91-23.19-18.26-38.61l562.66-685.76c24.39-29.72,72.56-10.87,70.29,27.51l-39.55,670.59c-2.26,38.39-36.3,67-74.51,62.63l-75.41-8.63-523.8,1134.36c-13.64,29.53-43.19,48.44-75.72,48.44h-181.54l-63.91-199.15Z"/><path class="cls-16" d="m1941.96,2287.17l372.7,827.9c22.08,49.04,70.85,80.57,124.63,80.57h192.13c25.49,0,48.98-13.83,61.35-36.12l6.83-12.32h0c-20.64,0-39.54-11.57-48.93-29.96l-496.58-972.97-212.14,142.89Z"/><path class="cls-10" d="m2204.25,2242.55h0c-37.37-29.51-91.98-20.84-118.36,18.81l-547.97,823.29c-43.89,65.94-117.85,105.56-197.06,105.56h-77.11l-62.75-180.77s509.42-781.11,640.73-899.27c0,0,130.76-117.85,259.68-28.75,34.06,23.54,59.92,57.14,75.72,95.41l27.12,65.72Z"/><path class="cls-13" d="m605.01,2523.27s91.73-114.65,269.47-132.49c0,0,84.42,28.76,252.61,330.13,168.19,301.37,279.82,438.8,410.83,363.74l-10.85,18.01c-35.74,59.35-99.96,95.63-169.24,95.63h-72.45c-79.77,0-154.66-38.35-201.24-103.11-130.9-181.97-398.72-543.66-479.13-571.91Z"/><path class="cls-7" d="m3349.39,1500.73c-.21,0-.43-.01-.65-.04-3.11-.35-5.34-3.16-4.99-6.26l3.71-32.75c.35-3.11,3.16-5.38,6.26-4.99,3.11.35,5.34,3.16,4.99,6.26l-3.71,32.75c-.33,2.89-2.78,5.02-5.62,5.02Z"/><path class="cls-7" d="m2879.7,1914.06c-1.21,0-2.42-.38-3.45-1.18-2.48-1.91-2.94-5.46-1.03-7.94l464.61-603.7c5.52-7.17,14.87-9.71,23.25-6.32,8.39,3.4,13.34,11.72,12.33,20.71l-8.2,72.36c-.35,3.11-3.15,5.35-6.26,4.99-3.11-.35-5.34-3.16-4.99-6.26l8.2-72.36c.54-4.79-2.39-7.75-5.32-8.94-2.92-1.18-7.1-1.09-10.03,2.73l-464.62,603.7c-1.11,1.45-2.79,2.21-4.49,2.21Z"/><path class="cls-7" d="m1825.67,2546.94c-1.09,0-2.19-.31-3.16-.97-2.59-1.75-3.28-5.27-1.53-7.86l240.29-356.17c8.71-12.91,23.16-19.93,38.7-18.73,15.53,1.18,28.78,10.28,35.44,24.36,1.34,2.83.13,6.2-2.7,7.54-2.83,1.35-6.2.13-7.54-2.69-4.9-10.35-14.64-17.05-26.06-17.91-11.43-.87-22.06,4.28-28.46,13.78l-240.29,356.17c-1.09,1.62-2.88,2.5-4.7,2.5Z"/><path class="cls-7" d="m1763.23,2639.49c-1.09,0-2.19-.31-3.16-.97-2.59-1.75-3.28-5.27-1.53-7.86l15.41-22.84c1.75-2.6,5.27-3.28,7.86-1.53,2.59,1.75,3.28,5.27,1.53,7.86l-15.41,22.84c-1.09,1.62-2.88,2.5-4.7,2.5Z"/><path class="cls-17" d="m1409.65,3242.58c-4.55,0-8.23-3.69-8.23-8.23v-984.17c0-4.55,3.69-8.23,8.23-8.23s8.23,3.69,8.23,8.23v984.17c0,4.55-3.69,8.23-8.23,8.23Z"/><path class="cls-17" d="m1186.52,3242.58c-4.55,0-8.23-3.69-8.23-8.23v-984.17c0-4.55,3.69-8.23,8.23-8.23s8.23,3.69,8.23,8.23v984.17c0,4.55-3.69,8.23-8.23,8.23Z"/><path class="cls-17" d="m638.32,3248.83c-1.08,0-2.17-.21-3.22-.66-4.18-1.78-6.14-6.61-4.36-10.8l421.05-990.41c1.78-4.18,6.62-6.13,10.8-4.36,4.18,1.78,6.13,6.61,4.36,10.8l-421.05,990.41c-1.33,3.13-4.38,5.01-7.58,5.01Z"/><path class="cls-17" d="m898.4,3248.83c-1.08,0-2.17-.21-3.22-.66-4.18-1.78-6.13-6.61-4.36-10.8l421.05-990.41c1.78-4.18,6.62-6.13,10.8-4.36,4.18,1.78,6.14,6.61,4.36,10.8l-421.05,990.41c-1.33,3.13-4.38,5.01-7.58,5.01Z"/><path class="cls-17" d="m1422.43,2259.24h-385.69c-6.41,0-11.61-5.2-11.61-11.6h0c0-6.41,5.2-11.6,11.61-11.6h385.69c6.41,0,11.6,5.2,11.6,11.6h0c0,6.41-5.2,11.6-11.6,11.6Z"/><path class="cls-17" d="m1255.84,2409.85h-260.85c-4.55,0-8.23-3.69-8.23-8.23s3.69-8.23,8.23-8.23h260.85c4.55,0,8.23,3.69,8.23,8.23s-3.69,8.23-8.23,8.23Z"/><rect class="cls-17" x="914.96" y="2580.7" width="260.85" height="16.47"/><rect class="cls-17" x="837.47" y="2768.01" width="260.85" height="16.47"/><path class="cls-17" d="m1017.07,2971.79h-260.85c-4.55,0-8.23-3.69-8.23-8.23s3.69-8.23,8.23-8.23h260.85c4.55,0,8.23,3.69,8.23,8.23s-3.69,8.23-8.23,8.23Z"/><path class="cls-17" d="m938.51,3159.1h-260.85c-4.55,0-8.23-3.69-8.23-8.23s3.69-8.23,8.23-8.23h260.85c4.55,0,8.23,3.69,8.23,8.23s-3.69,8.23-8.23,8.23Z"/><rect class="cls-23" x="2188.06" y="1780.73" width="36.79" height="768.65"/><path class="cls-5" d="m2647.2,2565.86h-871.67c0,73.72,13.13,146.84,38.79,215.95l152.34,410.4c11.38,30.65,40.62,50.98,73.3,50.98h342.79c32.69,0,61.93-20.34,73.3-50.98l152.35-410.4c25.65-69.11,38.79-142.23,38.79-215.95h0Z"/><circle class="cls-23" cx="2221.68" cy="1303.96" r="692.72" transform="translate(-271.32 1952.88) rotate(-45)"/><circle class="cls-16" cx="2221.68" cy="1303.96" r="669.69" transform="translate(-271.32 1952.88) rotate(-45)"/><path class="cls-9" d="m1672.41,1032.21c-1.89-.02-3.81-.47-5.61-1.4-6.13-3.18-8.52-10.73-5.34-16.85,110.35-212.77,327.67-343.3,567.16-340.66,38.21.42,76.45,4.29,113.65,11.5,6.78,1.31,11.21,7.86,9.9,14.65-1.31,6.77-7.82,11.25-14.65,9.89-35.73-6.91-72.46-10.63-109.17-11.03-230-2.53-438.71,122.83-544.69,327.16-2.24,4.34-6.67,6.8-11.25,6.75Z"/><circle class="cls-9" cx="2236.11" cy="1318.71" r="566.81" transform="translate(-277.53 1967.41) rotate(-45)"/><text class="cls-1" transform="translate(1979.97 1719.56) rotate(-7.9)"><tspan x="0" y="0">₽</tspan></text><path class="cls-6" d="m2491.46,2511.54c-.14,0-.28,0-.42-.01-4.67-.23-8.28-4.2-8.05-8.88l.5-10.13c.23-4.67,4.24-8.27,8.87-8.05,4.67.23,8.28,4.2,8.05,8.88l-.5,10.14c-.22,4.53-3.97,8.06-8.46,8.06Zm1.62-33.78c-.13,0-.26,0-.4,0-4.67-.21-8.29-4.18-8.08-8.85l.47-10.13c.22-4.68,4.27-8.34,8.85-8.08,4.67.21,8.29,4.18,8.08,8.85l-.47,10.14c-.21,4.54-3.96,8.08-8.46,8.08Zm1.52-33.79c-.13,0-.25,0-.38,0-4.67-.21-8.3-4.16-8.09-8.84l.44-10.12c.2-4.68,4.24-8.3,8.82-8.11,4.67.2,8.31,4.15,8.11,8.82l-.44,10.15c-.2,4.55-3.95,8.1-8.46,8.1Zm1.41-33.79c-.12,0-.23,0-.35,0-4.68-.19-8.31-4.14-8.12-8.81l.4-10.02,8.47.23,8.46.43-.4,10.05c-.18,4.56-3.94,8.12-8.46,8.12Zm1.29-33.88c-.1,0-.2,0-.31,0-4.68-.17-8.33-4.01-8.16-8.68l.36-10.13c.17-4.68,4.17-8.35,8.77-8.17,4.68.16,8.34,4.09,8.17,8.76l-.36,9.96c-.17,4.57-3.93,8.26-8.47,8.26Zm1.16-33.79c-.09,0-.18,0-.27,0-4.68-.15-8.35-3.98-8.2-8.66l.32-10.13c.15-4.68,4.08-8.38,8.73-8.2,4.68.15,8.35,4.06,8.2,8.73l-.32,9.98c-.15,4.59-3.92,8.28-8.47,8.28Zm1.03-33.72c-.08,0-.16,0-.24,0-4.68-.13-8.36-4.03-8.23-8.71l.27-9.99,8.48.09,8.47.37-.28,10.01c-.13,4.6-3.9,8.23-8.47,8.23Zm.89-33.86c-.07,0-.13,0-.2,0-4.68-.11-8.38-3.93-8.27-8.61l.23-10.13c.11-4.61,3.88-8.28,8.47-8.28.06,0,.13,0,.19,0,4.68.1,8.39,3.98,8.28,8.66l-.23,10.03c-.11,4.61-3.88,8.33-8.47,8.33Zm.73-33.79c-.05,0-.11,0-.16,0-4.68-.09-8.4-3.9-8.32-8.58l.19-10.13c.08-4.63,3.86-8.32,8.47-8.32.05,0,.1,0,.15,0,4.68.08,8.41,3.94,8.32,8.62l-.19,10.05c-.09,4.63-3.86,8.36-8.47,8.36Zm.56-33.76s-.08,0-.12,0c-4.68-.06-8.42-3.91-8.36-8.59l.13-10.06,16.94.21-.13,10.08c-.06,4.64-3.84,8.36-8.47,8.36Zm.38-33.81s-.05,0-.08,0c-4.68-.04-8.44-3.87-8.4-8.55l.08-10.12c.03-4.66,3.82-8.42,8.47-8.42.02,0,.04,0,.06,0,4.68.03,8.45,3.85,8.41,8.53l-.08,10.15c-.04,4.65-3.82,8.4-8.47,8.4Zm.19-33.81h-.03c-4.68-.01-8.46-3.82-8.45-8.5l.02-10.12c0-4.68,3.79-8.47,8.47-8.47h0c4.68,0,8.47,3.8,8.47,8.48l-.02,10.15c-.01,4.67-3.8,8.45-8.47,8.45Zm0-33.8c-4.66,0-8.46-3.77-8.47-8.44l-.04-10.12c-.02-4.68,3.75-8.49,8.43-8.51h.04c4.66,0,8.45,3.77,8.47,8.43l.04,10.14c.02,4.68-3.76,8.49-8.44,8.51h-.03Zm-.23-33.75c-4.63,0-8.42-3.73-8.47-8.38l-.11-10.14c-.06-4.68,3.69-8.52,8.37-8.57.03,0,.07,0,.1,0,4.63,0,8.42,3.73,8.47,8.37l.11,10.15c.05,4.68-3.7,8.51-8.38,8.56-.03,0-.06,0-.1,0Zm-.45-33.82c-4.61,0-8.39-3.7-8.47-8.33l-.18-10.12c-.09-4.68,3.63-8.54,8.31-8.64.06,0,.11,0,.17,0,4.6,0,8.38,3.69,8.47,8.31l.18,10.17c.08,4.68-3.65,8.53-8.33,8.61-.05,0-.1,0-.15,0Zm-.71-33.82c-4.58,0-8.36-3.66-8.47-8.27l-.25-10.13c-.13-4.68,3.57-8.57,8.24-8.69,4.61-.14,8.57,3.57,8.69,8.25l.26,10.16c.11,4.68-3.59,8.56-8.26,8.68-.07,0-.14,0-.21,0Zm-.96-33.81c-4.56,0-8.32-3.62-8.47-8.21-.11-3.37-.22-6.74-.34-10.11-.17-4.68,3.49-8.6,8.17-8.77.1,0,.2,0,.3,0,4.54,0,8.3,3.6,8.46,8.17.12,3.39.23,6.78.34,10.18.15,4.68-3.53,8.59-8.2,8.73-.09,0-.18,0-.27,0Zm-1.24-33.8c-4.52,0-8.27-3.57-8.46-8.13l-.43-10.11c-.2-4.68,3.42-8.63,8.09-8.84,4.66-.17,8.63,3.42,8.84,8.09l.43,10.16c.19,4.68-3.44,8.62-8.12,8.81-.12,0-.23,0-.35,0Zm-1.54-33.79c-4.48,0-8.22-3.52-8.46-8.04l-.53-10.12c-.25-4.67,3.34-8.66,8.02-8.91,4.75-.25,8.66,3.34,8.91,8.01l.53,10.15c.24,4.67-3.36,8.65-8.03,8.89-.15,0-.29.01-.44.01Zm-1.86-33.78c-4.45,0-8.18-3.46-8.45-7.96l-.62-10.11c-.29-4.67,3.25-8.69,7.92-8.99,4.73-.26,8.69,3.26,8.99,7.93l.63,10.15c.28,4.67-3.28,8.69-7.95,8.97-.17.01-.35.02-.52.02Zm-2.21-33.75c-4.41,0-8.13-3.41-8.44-7.88l-.73-10.1c-.34-4.67,3.16-8.73,7.83-9.07,4.58-.34,8.73,3.16,9.07,7.83l.73,10.15c.33,4.67-3.19,8.72-7.86,9.05-.2.01-.4.02-.6.02Zm-2.57-33.73c-4.37,0-8.07-3.35-8.44-7.78l-.84-10.08c-.4-4.66,3.06-8.77,7.72-9.16,4.67-.4,8.77,3.06,9.16,7.72l.85,10.14c.38,4.66-3.09,8.75-7.75,9.14-.23.02-.47.03-.7.03Zm-2.96-33.7c-4.32,0-8.01-3.29-8.43-7.68l-.96-10.07c-.45-4.66,2.95-8.8,7.61-9.25,4.65-.47,8.8,2.95,9.25,7.61l.97,10.13c.44,4.66-2.98,8.79-7.64,9.23-.27.02-.54.04-.8.04Zm-3.39-33.66c-4.28,0-7.95-3.23-8.42-7.57-.36-3.36-.72-6.71-1.1-10.05-.52-4.65,2.83-8.84,7.48-9.36,4.71-.54,8.84,2.84,9.36,7.48.37,3.37.74,6.74,1.1,10.12.5,4.65-2.87,8.83-7.53,9.33-.3.03-.61.05-.91.05Zm-3.83-33.61c-4.23,0-7.88-3.16-8.4-7.46-.4-3.35-.82-6.69-1.24-10.02-.59-4.64,2.7-8.88,7.35-9.47,4.66-.59,8.88,2.7,9.47,7.34.43,3.37.84,6.74,1.25,10.12.56,4.65-2.75,8.87-7.4,9.43-.35.04-.69.06-1.03.06Zm-4.32-33.55c-4.17,0-7.8-3.08-8.38-7.32-.46-3.35-.93-6.69-1.4-10.02-.65-4.63,2.57-8.92,7.2-9.58,4.66-.67,8.92,2.57,9.58,7.2.48,3.35.94,6.71,1.4,10.08.64,4.64-2.6,8.91-7.24,9.55-.39.05-.78.08-1.17.08Zm-4.86-33.48c-4.11,0-7.72-3-8.37-7.19-.51-3.34-1.03-6.67-1.56-9.99-.73-4.62,2.42-8.96,7.04-9.7,4.64-.73,8.96,2.42,9.7,7.04.53,3.35,1.05,6.7,1.57,10.07.71,4.63-2.46,8.95-7.09,9.66-.44.07-.87.1-1.3.1Zm-5.43-33.39c-4.05,0-7.63-2.91-8.34-7.04-.57-3.33-1.15-6.64-1.74-9.95-.82-4.61,2.25-9.01,6.86-9.83,4.62-.82,9,2.25,9.83,6.86.59,3.34,1.18,6.69,1.75,10.05.79,4.61-2.3,8.99-6.91,9.78-.49.08-.97.12-1.45.12Zm-6.05-33.28c-3.98,0-7.54-2.82-8.31-6.88-.63-3.31-1.27-6.61-1.93-9.9-.91-4.59,2.07-9.05,6.66-9.96,4.58-.91,9.05,2.07,9.96,6.66.66,3.33,1.31,6.67,1.96,10.02.88,4.6-2.13,9.03-6.73,9.91-.54.1-1.07.15-1.6.15Zm-6.72-33.15c-3.91,0-7.42-2.72-8.27-6.7-.71-3.3-1.42-6.58-2.15-9.86-1.01-4.57,1.87-9.09,6.44-10.11,4.59-1.02,9.09,1.87,10.11,6.44.73,3.31,1.46,6.64,2.17,9.97.98,4.58-1.94,9.08-6.51,10.06-.6.13-1.2.19-1.78.19Zm-7.46-32.99c-3.83,0-7.3-2.62-8.23-6.5-.79-3.28-1.58-6.55-2.38-9.8-1.12-4.54,1.66-9.13,6.2-10.25,4.54-1.12,9.13,1.66,10.25,6.2.81,3.29,1.61,6.6,2.4,9.92,1.09,4.55-1.72,9.12-6.27,10.21-.66.16-1.33.23-1.98.23Zm-8.27-32.8c-3.75,0-7.17-2.51-8.18-6.3-.87-3.26-1.74-6.5-2.63-9.73-1.24-4.51,1.42-9.18,5.93-10.41,4.51-1.23,9.17,1.42,10.41,5.93.9,3.27,1.78,6.56,2.66,9.86,1.2,4.52-1.49,9.16-6.01,10.37-.73.19-1.46.29-2.18.29Zm-9.14-32.56c-3.66,0-7.03-2.38-8.12-6.07-.95-3.23-1.93-6.44-2.91-9.64-1.37-4.48,1.15-9.21,5.62-10.58,4.49-1.38,9.21,1.14,10.59,5.62.99,3.25,1.98,6.51,2.95,9.79,1.33,4.49-1.23,9.2-5.72,10.53-.8.24-1.62.35-2.41.35Zm-10.11-32.27c-3.56,0-6.87-2.25-8.04-5.81-1.06-3.2-2.13-6.38-3.21-9.54-1.52-4.43.85-9.24,5.27-10.76,4.43-1.52,9.24.85,10.76,5.28,1.1,3.21,2.19,6.45,3.26,9.7,1.47,4.44-.94,9.24-5.38,10.71-.88.29-1.78.43-2.66.43Zm-11.17-31.92c-3.44,0-6.68-2.11-7.95-5.53-1.17-3.15-2.35-6.29-3.54-9.41-1.67-4.37.51-9.27,4.88-10.94,4.37-1.67,9.27.51,10.94,4.88,1.22,3.18,2.42,6.37,3.61,9.58,1.63,4.39-.61,9.26-5,10.89-.97.36-1.97.53-2.94.53Zm-12.34-31.48c-3.32,0-6.48-1.97-7.83-5.23-1.28-3.1-2.59-6.18-3.9-9.25-1.85-4.3.14-9.28,4.44-11.13,4.3-1.85,9.28.14,11.13,4.44,1.34,3.13,2.67,6.28,3.99,9.45,1.79,4.32-.26,9.28-4.58,11.07-1.06.44-2.16.65-3.24.65Zm-13.62-30.95c-3.19,0-6.25-1.81-7.68-4.89-1.42-3.04-2.86-6.06-4.31-9.06-2.04-4.21-.27-9.28,3.94-11.32,4.21-2.03,9.28-.27,11.32,3.94,1.48,3.07,2.95,6.15,4.41,9.27,1.98,4.24.15,9.28-4.09,11.26-1.16.54-2.38.8-3.58.8Zm-15.03-30.28c-3.04,0-5.98-1.64-7.5-4.52-1.56-2.96-3.14-5.9-4.74-8.82-2.25-4.1-.74-9.25,3.36-11.5,4.1-2.25,9.25-.75,11.5,3.36,1.64,2.99,3.26,6.01,4.87,9.05,2.18,4.14.6,9.26-3.54,11.45-1.26.67-2.61.98-3.95.98Zm-16.57-29.47c-2.88,0-5.69-1.47-7.28-4.12-1.72-2.87-3.45-5.71-5.21-8.52-2.48-3.97-1.27-9.2,2.7-11.67,3.97-2.48,9.2-1.27,11.67,2.7,1.81,2.9,3.6,5.83,5.37,8.79,2.4,4.01,1.1,9.22-2.92,11.62-1.36.82-2.86,1.21-4.35,1.21Zm-18.24-28.45c-2.7,0-5.35-1.29-7-3.68-1.89-2.75-3.79-5.48-5.72-8.17-2.72-3.81-1.84-9.1,1.97-11.82,3.81-2.72,9.1-1.84,11.82,1.97,1.99,2.79,3.96,5.6,5.91,8.45,2.65,3.86,1.66,9.13-2.2,11.78-1.47,1-3.13,1.48-4.79,1.48Zm-20.03-27.21c-2.5,0-4.98-1.1-6.66-3.22-2.06-2.61-4.15-5.19-6.26-7.74-2.98-3.61-2.48-8.95,1.13-11.93,3.6-2.98,8.95-2.48,11.93,1.13,2.19,2.64,4.35,5.32,6.49,8.03,2.9,3.67,2.28,9-1.39,11.9-1.56,1.23-3.41,1.83-5.25,1.83Zm-21.92-25.71c-2.29,0-4.57-.92-6.24-2.73-2.25-2.44-4.52-4.85-6.82-7.23-3.25-3.37-3.16-8.73.21-11.98,3.36-3.25,8.73-3.16,11.98.21,2.39,2.47,4.75,4.98,7.09,7.52,3.17,3.44,2.95,8.8-.5,11.97-1.63,1.5-3.68,2.24-5.73,2.24Zm-23.87-23.89c-2.05,0-4.11-.74-5.74-2.24-2.43-2.24-4.89-4.45-7.38-6.62-3.52-3.08-3.88-8.43-.81-11.95,3.08-3.53,8.43-3.89,11.96-.8,2.6,2.27,5.17,4.58,7.71,6.92,3.44,3.17,3.66,8.53.49,11.97-1.67,1.81-3.95,2.73-6.23,2.73Zm-25.81-21.77c-1.8,0-3.62-.57-5.16-1.76-2.62-2.01-5.27-3.99-7.94-5.94-3.79-2.75-4.62-8.05-1.87-11.83,2.75-3.79,8.05-4.62,11.83-1.87,2.79,2.03,5.56,4.1,8.3,6.21,3.71,2.85,4.41,8.17,1.56,11.88-1.67,2.17-4.18,3.31-6.72,3.31Zm-27.67-19.33c-1.55,0-3.11-.42-4.51-1.31-2.78-1.75-5.59-3.47-8.42-5.14-4.03-2.38-5.36-7.58-2.98-11.61,2.38-4.03,7.58-5.36,11.61-2.98,2.97,1.76,5.91,3.56,8.83,5.39,3.96,2.5,5.15,7.73,2.65,11.69-1.61,2.56-4.36,3.96-7.17,3.96Zm-29.36-16.62c-1.28,0-2.59-.29-3.81-.91-2.95-1.49-5.93-2.94-8.93-4.34-4.24-1.99-6.06-7.03-4.08-11.27,1.99-4.23,7.02-6.07,11.27-4.07,3.15,1.47,6.27,2.99,9.37,4.56,4.18,2.11,5.86,7.2,3.75,11.38-1.49,2.95-4.47,4.66-7.57,4.66Zm-30.85-13.75c-1.02,0-2.06-.19-3.08-.58-3.07-1.19-6.15-2.35-9.27-3.46-4.41-1.58-6.7-6.43-5.12-10.83,1.58-4.41,6.42-6.69,10.83-5.12,3.27,1.17,6.51,2.38,9.72,3.63,4.36,1.7,6.52,6.61,4.82,10.97-1.3,3.35-4.51,5.4-7.9,5.4Zm-31.97-10.77c-.77,0-1.56-.11-2.34-.33-3.16-.91-6.34-1.77-9.56-2.6-4.53-1.17-7.26-5.78-6.09-10.32,1.16-4.53,5.8-7.26,10.31-6.1,3.36.87,6.69,1.77,10,2.72,4.5,1.29,7.1,5.98,5.81,10.48-1.06,3.72-4.46,6.14-8.14,6.14Zm-32.81-7.84c-.53,0-1.08-.05-1.62-.16-3.23-.63-6.48-1.21-9.76-1.76-4.61-.77-7.73-5.14-6.96-9.75.77-4.61,5.14-7.75,9.75-6.96,3.42.57,6.82,1.18,10.19,1.84,4.59.89,7.6,5.34,6.7,9.93-.78,4.05-4.33,6.86-8.31,6.86Zm-144.71-4.26c-4.26,0-7.93-3.21-8.41-7.54-.52-4.65,2.84-8.84,7.49-9.35,3.43-.38,6.84-.73,10.23-1.05,4.69-.45,8.79,2.99,9.23,7.64.44,4.66-2.99,8.79-7.64,9.23-3.3.31-6.62.65-9.95,1.02-.32.04-.63.05-.94.05Zm111.35-.77c-.31,0-.62-.02-.93-.05-3.28-.36-6.58-.68-9.9-.97-4.66-.4-8.12-4.51-7.71-9.17.41-4.66,4.53-8.11,9.17-7.71,3.45.3,6.87.64,10.28,1.01,4.65.51,8.01,4.69,7.5,9.34-.47,4.34-4.15,7.55-8.41,7.55Zm-77.64-1.99c-4.48,0-8.22-3.51-8.46-8.03-.24-4.67,3.35-8.66,8.02-8.9,3.46-.18,6.89-.33,10.31-.44,4.53-.15,8.59,3.51,8.74,8.19.15,4.68-3.52,8.59-8.19,8.74-3.3.11-6.63.25-9.97.42-.15,0-.3.01-.45.01Zm43.95-.42c-.1,0-.2,0-.31,0-3.29-.12-6.61-.19-9.95-.24-4.68-.06-8.42-3.91-8.36-8.59.06-4.68,3.94-8.59,8.59-8.36,3.46.05,6.9.13,10.32.25,4.68.17,8.33,4.09,8.17,8.77-.16,4.57-3.92,8.17-8.46,8.17Z"/><path class="cls-6" d="m2394.78,2536.9s-.06,0-.1,0c-4.68-.05-8.43-3.88-8.38-8.56l.1-9.93,8.48-.11,8.47.28-.1,9.94c-.05,4.65-3.83,8.38-8.47,8.38Zm.34-33.79s-.05,0-.08,0c-4.68-.04-8.44-3.87-8.4-8.55l.1-10.14c.05-4.65,3.83-8.39,8.47-8.39.03,0,.06,0,.09,0,4.68.04,8.44,3.88,8.39,8.55l-.1,10.12c-.04,4.65-3.82,8.4-8.47,8.4Zm.32-33.79s-.05,0-.08,0c-4.68-.04-8.44-3.87-8.4-8.55l.09-10.13c.04-4.65,3.82-8.4,8.47-8.4.03,0,.05,0,.08,0,4.68.04,8.44,3.87,8.4,8.55l-.09,10.13c-.04,4.65-3.82,8.4-8.47,8.4Zm.3-33.79s-.05,0-.08,0c-4.68-.04-8.44-3.87-8.4-8.55l.08-10,8.48-.05,8.47.18-.08,10.02c-.04,4.65-3.82,8.4-8.47,8.4Zm.27-33.87h-.07c-4.68-.04-8.44-3.78-8.41-8.46l.08-10.12c.03-4.66,3.82-8.42,8.47-8.42h.06c4.68.03,8.45,3.85,8.41,8.53l-.07,9.98c-.04,4.66-3.82,8.49-8.48,8.49Zm.23-33.71s-.04,0-.07,0c-4.68-.04-8.44-3.86-8.41-8.54l.07-10.07,16.94.1-.07,10.1c-.04,4.66-3.82,8.41-8.47,8.41Zm.2-33.79h-.04c-4.68-.02-8.46-3.84-8.43-8.51l.05-10.13c.02-4.67,3.81-8.43,8.47-8.43h.04c4.68.02,8.45,3.84,8.43,8.51l-.05,10.13c-.02,4.67-3.81,8.43-8.47,8.43Zm.15-33.79h-.04c-4.68-.02-8.45-3.83-8.43-8.51l.04-10.08h8.47s8.47.05,8.47.05l-.04,10.11c-.02,4.67-3.81,8.43-8.47,8.43Zm.1-33.82h-.02c-4.68,0-8.47-3.78-8.46-8.46l.02-10.12c0-4.68,3.79-8.47,8.47-8.47h0c4.68,0,8.47,3.8,8.47,8.48l-.02,10.08c0,4.67-3.8,8.49-8.47,8.49Zm.03-33.76c-4.68,0-8.47-3.79-8.47-8.47v-10.13c0-4.68,3.78-8.48,8.46-8.48h0c4.68,0,8.47,3.79,8.47,8.47v10.15c0,4.68-3.79,8.47-8.47,8.47Zm-.03-33.82c-4.67,0-8.47-3.78-8.47-8.46l-.03-10.14c-.01-4.68,3.77-8.48,8.45-8.5h.03c4.67,0,8.46,3.78,8.47,8.45l.03,10.15c0,4.68-3.78,8.48-8.46,8.49h-.02Zm-.11-33.82c-4.66,0-8.45-3.77-8.47-8.43l-.05-10.15c-.02-4.68,3.75-8.49,8.43-8.51h.04c4.66,0,8.45,3.77,8.47,8.43l.05,10.15c.02,4.68-3.75,8.49-8.43,8.51h-.04Zm-.2-33.82c-4.65,0-8.44-3.75-8.47-8.41l-.08-10.14c-.04-4.68,3.73-8.5,8.41-8.54.02,0,.05,0,.07,0,4.65,0,8.43,3.75,8.47,8.41l.08,10.14c.04,4.68-3.73,8.5-8.41,8.54-.02,0-.05,0-.07,0Zm-.3-33.82c-4.64,0-8.42-3.73-8.47-8.38l-.11-10.14c-.06-4.68,3.69-8.52,8.37-8.57.03,0,.07,0,.1,0,4.63,0,8.42,3.73,8.47,8.37l.11,10.15c.05,4.68-3.7,8.51-8.38,8.56-.03,0-.06,0-.09,0Zm-.41-33.82c-4.63,0-8.41-3.72-8.47-8.37l-.14-10.13c-.07-4.68,3.67-8.53,8.35-8.6.04,0,.09,0,.13,0,4.62,0,8.4,3.71,8.47,8.35l.14,10.16c.06,4.68-3.69,8.52-8.36,8.58-.04,0-.08,0-.11,0Zm-.53-33.81c-4.61,0-8.39-3.7-8.47-8.33l-.18-10.13c-.09-4.68,3.64-8.54,8.31-8.63,4.75-.03,8.54,3.64,8.63,8.31l.18,10.16c.08,4.68-3.65,8.53-8.33,8.61-.05,0-.09,0-.14,0Zm-.66-33.81c-4.59,0-8.37-3.68-8.47-8.29l-.23-10.13c-.11-4.68,3.59-8.56,8.27-8.67,4.7-.06,8.56,3.6,8.67,8.27l.23,10.16c.1,4.68-3.61,8.55-8.29,8.65-.06,0-.13,0-.18,0Zm-.81-33.81c-4.58,0-8.35-3.65-8.47-8.25l-.27-10.13c-.13-4.68,3.56-8.57,8.24-8.7.08,0,.16,0,.23,0,4.57,0,8.34,3.64,8.47,8.24l.27,10.15c.13,4.68-3.57,8.57-8.25,8.69-.07,0-.15,0-.22,0Zm-.98-33.81c-4.55,0-8.31-3.62-8.46-8.2l-.33-10.13c-.16-4.68,3.51-8.59,8.19-8.75,4.68-.16,8.59,3.51,8.75,8.19l.33,10.15c.15,4.68-3.52,8.59-8.2,8.74-.09,0-.18,0-.28,0Zm-1.16-33.8c-4.53,0-8.29-3.59-8.46-8.15l-.39-10.13c-.18-4.68,3.46-8.62,8.13-8.8,4.65-.16,8.61,3.46,8.8,8.13l.39,10.15c.18,4.68-3.47,8.61-8.14,8.79-.11,0-.22,0-.33,0Zm-1.37-33.79c-4.51,0-8.26-3.56-8.46-8.11l-.45-10.11c-.21-4.67,3.4-8.64,8.08-8.85,4.68-.22,8.64,3.4,8.85,8.07l.45,10.16c.2,4.68-3.43,8.63-8.1,8.83-.13,0-.25,0-.37,0Zm-1.6-33.78c-4.48,0-8.23-3.52-8.46-8.04l-.53-10.11c-.25-4.67,3.34-8.66,8.01-8.91,4.77-.23,8.66,3.34,8.91,8.01l.53,10.15c.24,4.67-3.36,8.66-8.03,8.89-.15,0-.29.01-.44.01Zm-1.84-33.77c-4.45,0-8.18-3.47-8.45-7.97l-.61-10.12c-.28-4.67,3.27-8.69,7.94-8.97,4.66-.31,8.69,3.27,8.97,7.94l.61,10.14c.28,4.67-3.28,8.68-7.96,8.96-.17,0-.34.01-.51.01Zm-2.13-33.75c-4.42,0-8.14-3.43-8.45-7.9l-.69-10.1c-.33-4.67,3.19-8.72,7.86-9.04,4.61-.35,8.72,3.2,9.04,7.86l.7,10.14c.31,4.67-3.22,8.71-7.89,9.02-.19.01-.39.02-.58.02Zm-2.44-33.73c-4.38,0-8.1-3.38-8.44-7.82-.26-3.37-.52-6.74-.79-10.09-.38-4.66,3.1-8.75,7.76-9.13,4.68-.37,8.75,3.1,9.13,7.76.27,3.37.54,6.75.8,10.14.36,4.67-3.13,8.74-7.8,9.1-.22.02-.44.03-.66.03Zm-2.78-33.7c-4.34,0-8.04-3.32-8.43-7.73-.3-3.37-.6-6.73-.91-10.08-.43-4.66,3.01-8.78,7.67-9.21,4.68-.45,8.79,3.01,9.21,7.66.31,3.37.61,6.75.91,10.14.41,4.66-3.04,8.77-7.7,9.18-.25.02-.51.03-.75.03Zm-3.17-33.67c-4.3,0-7.98-3.26-8.42-7.62-.34-3.37-.68-6.72-1.03-10.06-.49-4.65,2.89-8.82,7.54-9.31,4.66-.49,8.83,2.89,9.31,7.55.35,3.36.7,6.74,1.04,10.12.47,4.66-2.92,8.81-7.58,9.28-.29.03-.57.04-.86.04Zm-3.61-33.63c-4.25,0-7.91-3.19-8.41-7.51-.38-3.37-.77-6.71-1.17-10.05-.55-4.65,2.77-8.86,7.41-9.41,4.72-.54,8.86,2.77,9.41,7.42.4,3.36.79,6.73,1.18,10.11.53,4.65-2.81,8.85-7.45,9.38-.33.04-.65.06-.97.06Zm-4.09-33.57c-4.19,0-7.83-3.11-8.39-7.38-.44-3.36-.88-6.7-1.32-10.02-.62-4.64,2.63-8.9,7.27-9.53,4.61-.62,8.9,2.63,9.53,7.27.45,3.35.9,6.71,1.34,10.09.6,4.64-2.67,8.89-7.31,9.5-.37.05-.74.07-1.11.07Zm-4.63-33.5c-4.13,0-7.75-3.02-8.37-7.23-.5-3.35-.99-6.68-1.5-10-.71-4.63,2.47-8.95,7.09-9.66,4.65-.7,8.95,2.47,9.66,7.1.51,3.34,1.01,6.69,1.52,10.07.69,4.63-2.51,8.94-7.14,9.62-.42.06-.84.09-1.26.09Zm-5.25-33.41c-4.07,0-7.65-2.93-8.35-7.07-.56-3.33-1.12-6.65-1.7-9.95-.8-4.61,2.28-9,6.89-9.8,4.61-.81,9,2.28,9.8,6.89.58,3.33,1.15,6.69,1.72,10.06.77,4.62-2.34,8.98-6.96,9.76-.47.08-.94.12-1.41.12Zm-5.95-33.29c-3.99,0-7.54-2.83-8.31-6.89-.63-3.32-1.27-6.62-1.92-9.89-.91-4.59,2.07-9.05,6.66-9.96,4.6-.9,9.05,2.07,9.96,6.66.66,3.32,1.31,6.67,1.95,10.03.88,4.6-2.15,9.03-6.74,9.91-.53.1-1.06.15-1.59.15Zm-6.73-33.14c-3.9,0-7.41-2.71-8.27-6.68-.72-3.3-1.44-6.58-2.17-9.84-1.03-4.56,1.84-9.1,6.4-10.13,4.57-1.04,9.1,1.84,10.13,6.4.74,3.3,1.48,6.63,2.2,9.97.99,4.57-1.91,9.08-6.49,10.08-.6.13-1.21.19-1.8.19Zm-7.64-32.94c-3.8,0-7.27-2.58-8.22-6.44-.81-3.27-1.63-6.52-2.46-9.75-1.17-4.53,1.56-9.15,6.09-10.32,4.53-1.17,9.15,1.56,10.32,6.09.85,3.28,1.68,6.59,2.5,9.92,1.12,4.54-1.65,9.14-6.19,10.26-.68.17-1.36.25-2.04.25Zm-8.65-32.68c-3.69,0-7.08-2.43-8.14-6.16-.92-3.25-1.86-6.47-2.8-9.67-1.32-4.49,1.24-9.2,5.73-10.52,4.48-1.33,9.2,1.24,10.52,5.73.96,3.25,1.91,6.52,2.84,9.82,1.28,4.5-1.33,9.19-5.83,10.47-.77.22-1.56.33-2.32.33Zm-9.83-32.35c-3.57,0-6.89-2.27-8.05-5.85-1.04-3.2-2.1-6.38-3.17-9.52-1.51-4.43.87-9.24,5.3-10.75,4.44-1.51,9.24.87,10.75,5.3,1.09,3.21,2.17,6.46,3.23,9.73,1.45,4.45-.98,9.23-5.43,10.68-.87.28-1.75.42-2.63.42Zm-11.17-31.9c-3.42,0-6.65-2.09-7.93-5.48-1.19-3.15-2.39-6.27-3.6-9.36-1.71-4.35.43-9.27,4.79-10.99,4.35-1.71,9.27.43,10.99,4.79,1.24,3.16,2.47,6.35,3.68,9.57,1.65,4.38-.55,9.27-4.93,10.92-.98.37-1.99.55-2.99.55Zm-12.7-31.32c-3.26,0-6.37-1.9-7.77-5.08-1.34-3.07-2.71-6.12-4.09-9.13-1.95-4.26-.08-9.28,4.18-11.23,4.26-1.95,9.28-.08,11.23,4.18,1.42,3.1,2.81,6.22,4.2,9.39,1.88,4.29-.08,9.28-4.37,11.16-1.1.48-2.26.71-3.39.71Zm-14.44-30.54c-3.08,0-6.05-1.68-7.55-4.61-1.53-2.98-3.07-5.92-4.63-8.83-2.22-4.12-.67-9.26,3.44-11.48,4.12-2.21,9.26-.68,11.48,3.44,1.62,3.01,3.21,6.05,4.79,9.13,2.13,4.16.49,9.27-3.68,11.4-1.24.63-2.56.93-3.86.93Zm-16.43-29.52c-2.87,0-5.67-1.46-7.26-4.09-1.72-2.85-3.47-5.67-5.24-8.45-2.51-3.95-1.35-9.18,2.6-11.7,3.94-2.51,9.18-1.35,11.7,2.6,1.84,2.89,3.66,5.82,5.45,8.78,2.42,4,1.13,9.21-2.87,11.63-1.37.83-2.88,1.22-4.38,1.22Zm-18.6-28.17c-2.63,0-5.22-1.22-6.88-3.51-1.94-2.69-3.91-5.34-5.91-7.95-2.84-3.72-2.13-9.04,1.59-11.88,3.72-2.84,9.03-2.13,11.88,1.59,2.08,2.73,4.15,5.51,6.18,8.32,2.74,3.79,1.89,9.09-1.91,11.83-1.5,1.08-3.23,1.61-4.95,1.61Zm-20.98-26.44c-2.36,0-4.71-.98-6.39-2.9-2.17-2.49-4.37-4.94-6.61-7.34-3.18-3.43-2.98-8.79.45-11.97,3.43-3.18,8.79-2.98,11.98.45,2.34,2.53,4.66,5.1,6.95,7.73,3.07,3.53,2.71,8.88-.81,11.95-1.61,1.4-3.59,2.09-5.57,2.09Zm-23.45-24.26c-2.07,0-4.15-.75-5.78-2.28-2.4-2.25-4.85-4.45-7.31-6.61-3.52-3.08-3.88-8.43-.8-11.95,3.08-3.52,8.43-3.88,11.96-.8,2.61,2.28,5.18,4.6,7.72,6.98,3.42,3.19,3.6,8.56.41,11.98-1.67,1.79-3.93,2.69-6.2,2.69Zm-25.87-21.63c-1.76,0-3.54-.55-5.07-1.69-2.63-1.97-5.29-3.88-7.98-5.76-3.84-2.67-4.79-7.95-2.11-11.79,2.67-3.84,7.95-4.79,11.79-2.11,2.85,1.98,5.66,4.01,8.45,6.09,3.75,2.8,4.52,8.11,1.71,11.86-1.66,2.23-4.21,3.4-6.79,3.4Zm-28.08-18.62c-1.45,0-2.93-.37-4.27-1.16-2.83-1.65-5.69-3.27-8.59-4.83-4.12-2.22-5.65-7.37-3.43-11.48,2.23-4.12,7.37-5.65,11.48-3.43,3.07,1.66,6.09,3.36,9.09,5.12,4.04,2.36,5.4,7.55,3.04,11.59-1.58,2.69-4.41,4.19-7.32,4.19Zm-30.01-15.39c-1.15,0-2.33-.24-3.44-.74-3-1.33-6.01-2.62-9.07-3.87-4.33-1.77-6.41-6.71-4.64-11.05,1.76-4.33,6.72-6.4,11.04-4.65,3.22,1.31,6.41,2.68,9.57,4.08,4.27,1.9,6.2,6.91,4.29,11.19-1.4,3.15-4.5,5.03-7.74,5.03Zm-31.47-12.09c-.87,0-1.76-.14-2.63-.42-3.11-1.02-6.27-1.99-9.44-2.93-4.49-1.32-7.06-6.03-5.73-10.52,1.32-4.49,6.02-7.05,10.52-5.73,3.34.98,6.64,2.01,9.91,3.08,4.45,1.45,6.88,6.24,5.43,10.68-1.17,3.58-4.49,5.85-8.05,5.85Zm-32.53-8.92c-.61,0-1.24-.07-1.87-.21-3.2-.72-6.43-1.4-9.7-2.05-4.59-.91-7.58-5.36-6.67-9.95.91-4.59,5.36-7.59,9.95-6.67,3.41.67,6.79,1.39,10.13,2.14,4.56,1.03,7.43,5.56,6.41,10.12-.89,3.94-4.38,6.62-8.26,6.62Zm-33.2-6c-.39,0-.78-.03-1.17-.08-3.26-.45-6.55-.87-9.87-1.25-4.65-.53-7.98-4.74-7.44-9.39.54-4.65,4.71-7.99,9.39-7.45,3.44.4,6.86.83,10.25,1.3,4.64.64,7.87,4.92,7.23,9.56-.59,4.24-4.22,7.31-8.38,7.31Zm-33.59-3.39c-.19,0-.37,0-.56-.02-3.29-.21-6.61-.4-9.95-.55-4.67-.21-8.29-4.17-8.08-8.85.21-4.67,4.08-8.32,8.85-8.08,3.46.16,6.89.34,10.29.56,4.67.31,8.21,4.34,7.9,9.01-.29,4.48-4.02,7.92-8.45,7.92Zm-43.91-1.03c-4.62,0-8.4-3.71-8.47-8.34-.07-4.68,3.66-8.53,8.34-8.6,3.1-.05,6.19-.07,9.25-.07h1.07c4.68.02,8.46,3.84,8.43,8.52-.02,4.67-3.81,8.43-8.47,8.43h-1.03c-2.98,0-5.97.02-8.98.07-.04,0-.09,0-.14,0Z"/><path class="cls-6" d="m2334.36,2555.44c-4.59,0-8.36-3.67-8.47-8.28l-.22-10.15c-.1-4.68,3.61-8.55,8.29-8.65.06,0,.12,0,.19,0,4.59,0,8.37,3.67,8.47,8.29l.22,10.13c.1,4.68-3.6,8.56-8.28,8.66-.07,0-.13,0-.19,0Zm-.75-33.8c-4.59,0-8.36-3.66-8.47-8.28l-.23-10.15c-.11-4.68,3.6-8.56,8.28-8.66.07,0,.13,0,.19,0,4.59,0,8.36,3.67,8.47,8.28l.23,10.14c.11,4.68-3.6,8.56-8.27,8.67-.07,0-.14,0-.2,0Zm-.78-33.81c-4.58,0-8.36-3.66-8.47-8.27l-.24-10.15c-.11-4.68,3.59-8.56,8.27-8.67,4.69-.06,8.56,3.6,8.67,8.27l.24,10.13c.11,4.68-3.59,8.56-8.26,8.68-.07,0-.14,0-.21,0Zm-.82-33.81c-4.58,0-8.35-3.65-8.47-8.26l-.25-10.14c-.12-4.68,3.57-8.57,8.25-8.69,4.65-.06,8.57,3.58,8.69,8.25l.25,10.14c.12,4.68-3.58,8.57-8.25,8.68-.07,0-.15,0-.22,0Zm-.86-33.81c-4.58,0-8.35-3.65-8.47-8.26l-.26-10.13c-.13-4.68,3.57-8.57,8.24-8.69,4.73-.07,8.57,3.57,8.69,8.25l.26,10.15c.12,4.68-3.58,8.57-8.25,8.68-.07,0-.15,0-.22,0Zm-.9-33.81c-4.57,0-8.34-3.64-8.47-8.24l-.28-10.14c-.13-4.68,3.56-8.57,8.24-8.7.08,0,.16,0,.23,0,4.57,0,8.34,3.64,8.47,8.24l.28,10.14c.13,4.68-3.56,8.57-8.24,8.7-.08,0-.16,0-.23,0Zm-.94-33.8c-4.56,0-8.33-3.63-8.47-8.23l-.29-10.14c-.14-4.68,3.54-8.58,8.22-8.72,4.75-.12,8.58,3.54,8.72,8.22l.29,10.14c.14,4.68-3.54,8.58-8.22,8.72-.09,0-.17,0-.25,0Zm-1-33.8c-4.56,0-8.32-3.63-8.46-8.22l-.31-10.14c-.14-4.68,3.53-8.58,8.21-8.73,4.85-.12,8.58,3.54,8.73,8.21l.31,10.14c.14,4.68-3.53,8.58-8.21,8.72-.09,0-.17,0-.26,0Zm-1.04-33.8c-4.55,0-8.32-3.62-8.46-8.21l-.32-10.13c-.15-4.68,3.52-8.59,8.19-8.74,4.63-.13,8.59,3.52,8.74,8.19l.32,10.15c.15,4.68-3.53,8.59-8.2,8.73-.09,0-.18,0-.27,0Zm-1.1-33.8c-4.55,0-8.31-3.61-8.46-8.19l-.34-10.13c-.16-4.68,3.5-8.6,8.18-8.76,4.62-.16,8.6,3.5,8.76,8.18l.34,10.15c.16,4.68-3.51,8.59-8.19,8.75-.1,0-.19,0-.29,0Zm-1.17-33.8c-4.54,0-8.3-3.6-8.46-8.18l-.36-10.13c-.17-4.68,3.48-8.61,8.16-8.77,4.73-.23,8.6,3.48,8.78,8.16l.36,10.15c.16,4.68-3.49,8.6-8.17,8.76-.1,0-.2,0-.3,0Zm-1.24-33.8c-4.53,0-8.29-3.59-8.46-8.15l-.39-10.14c-.18-4.68,3.46-8.61,8.14-8.79,4.62-.17,8.61,3.47,8.79,8.14l.39,10.14c.18,4.68-3.47,8.61-8.14,8.79-.11,0-.22,0-.33,0Zm-1.31-33.79c-4.52,0-8.28-3.57-8.46-8.13l-.41-10.13c-.19-4.68,3.44-8.62,8.12-8.81,4.66-.17,8.62,3.44,8.82,8.12l.41,10.15c.19,4.68-3.45,8.62-8.13,8.81-.11,0-.23,0-.34,0Zm-1.4-33.79c-4.51,0-8.26-3.56-8.46-8.11l-.44-10.13c-.2-4.68,3.43-8.63,8.1-8.83,4.79-.19,8.63,3.43,8.83,8.1l.44,10.14c.2,4.68-3.43,8.63-8.1,8.83-.12,0-.25,0-.37,0Zm-1.49-33.78c-4.5,0-8.25-3.54-8.46-8.09l-.47-10.13c-.21-4.67,3.4-8.64,8.08-8.85,4.61-.24,8.64,3.4,8.85,8.07l.47,10.14c.21,4.68-3.4,8.64-8.08,8.85-.13,0-.26,0-.39,0Zm-1.59-33.78c-4.49,0-8.23-3.53-8.46-8.06l-.5-10.12c-.23-4.67,3.37-8.65,8.04-8.88,4.63-.27,8.65,3.37,8.88,8.04l.5,10.14c.23,4.67-3.38,8.65-8.05,8.88-.14,0-.28,0-.42,0Zm-1.7-33.77c-4.48,0-8.22-3.51-8.46-8.03l-.54-10.13c-.25-4.67,3.34-8.66,8.01-8.91,4.71-.22,8.66,3.34,8.91,8.01l.54,10.13c.24,4.67-3.34,8.66-8.02,8.91-.15,0-.3.01-.45.01Zm-1.82-33.77c-4.47,0-8.2-3.49-8.45-8l-.57-10.12c-.27-4.67,3.31-8.68,7.98-8.94,4.73-.28,8.67,3.31,8.94,7.98l.57,10.14c.26,4.67-3.32,8.67-7.99,8.93-.16,0-.32.01-.48.01Zm-1.95-33.76c-4.45,0-8.18-3.46-8.45-7.96l-.61-10.12c-.28-4.67,3.27-8.69,7.94-8.97,4.73-.34,8.69,3.27,8.97,7.94l.61,10.13c.28,4.67-3.28,8.68-7.95,8.97-.18.01-.35.02-.52.02Zm-2.1-33.75c-4.43,0-8.16-3.44-8.45-7.93l-.66-10.11c-.31-4.67,3.23-8.7,7.9-9.01,4.57-.29,8.7,3.23,9.01,7.9l.66,10.14c.3,4.67-3.24,8.7-7.91,9-.19.01-.37.02-.55.02Zm-2.27-33.74c-4.41,0-8.13-3.42-8.44-7.89l-.71-10.11c-.33-4.67,3.19-8.72,7.85-9.05,4.62-.35,8.72,3.18,9.05,7.85l.71,10.13c.32,4.67-3.2,8.72-7.87,9.04-.2.01-.4.02-.59.02Zm-2.44-33.73c-4.39,0-8.11-3.39-8.44-7.84l-.77-10.1c-.36-4.67,3.13-8.74,7.8-9.1,4.59-.36,8.73,3.13,9.1,7.8l.77,10.13c.35,4.67-3.15,8.73-7.81,9.08-.21.02-.43.02-.64.02Zm-2.64-33.71c-4.37,0-8.08-3.36-8.44-7.79l-.83-10.09c-.39-4.66,3.07-8.76,7.74-9.15,4.66-.39,8.76,3.07,9.15,7.74l.84,10.13c.38,4.66-3.1,8.75-7.76,9.13-.23.02-.46.03-.69.03Zm-2.85-33.69c-4.34,0-8.04-3.32-8.43-7.73l-.9-10.08c-.42-4.66,3.01-8.78,7.67-9.2,4.63-.42,8.78,3.01,9.21,7.67l.9,10.13c.41,4.66-3.04,8.77-7.7,9.18-.25.02-.51.03-.75.03Zm-3.09-33.67c-4.32,0-8.01-3.28-8.43-7.67l-.98-10.07c-.46-4.66,2.94-8.8,7.6-9.26,4.68-.47,8.81,2.94,9.26,7.6l.98,10.12c.45,4.66-2.97,8.8-7.63,9.24-.27.03-.54.04-.82.04Zm-3.37-33.64c-4.29,0-7.97-3.24-8.42-7.6-.35-3.37-.7-6.72-1.06-10.06-.5-4.65,2.87-8.83,7.52-9.33,4.65-.5,8.83,2.86,9.33,7.52.36,3.36.72,6.73,1.07,10.12.48,4.66-2.9,8.82-7.56,9.3-.3.03-.59.05-.88.05Zm-3.67-33.61c-4.25,0-7.92-3.19-8.41-7.52-.38-3.37-.77-6.71-1.16-10.04-.55-4.65,2.78-8.86,7.42-9.4,4.67-.56,8.86,2.78,9.41,7.42.39,3.35.79,6.72,1.17,10.11.53,4.65-2.81,8.85-7.46,9.37-.32.04-.65.05-.96.05Zm-4.01-33.57c-4.21,0-7.86-3.13-8.4-7.42-.42-3.36-.85-6.71-1.27-10.04-.6-4.64,2.68-8.89,7.32-9.49,4.66-.58,8.89,2.68,9.48,7.32.43,3.35.86,6.71,1.28,10.09.58,4.64-2.71,8.88-7.35,9.46-.36.04-.71.07-1.06.07Zm-4.4-33.52c-4.17,0-7.8-3.08-8.39-7.32-.46-3.36-.92-6.69-1.39-10.01-.66-4.63,2.57-8.92,7.2-9.58,4.62-.64,8.92,2.56,9.58,7.2.47,3.34.94,6.7,1.41,10.09.63,4.64-2.61,8.91-7.24,9.55-.39.05-.78.08-1.16.08Zm-4.83-33.46c-4.12,0-7.73-3.01-8.37-7.21-.51-3.35-1.02-6.68-1.54-9.99-.72-4.62,2.44-8.96,7.06-9.68,4.64-.74,8.95,2.44,9.68,7.06.52,3.33,1.04,6.69,1.55,10.07.7,4.63-2.48,8.94-7.11,9.64-.43.06-.86.1-1.28.1Zm-5.32-33.39c-4.07,0-7.65-2.93-8.35-7.07-.56-3.34-1.12-6.66-1.7-9.95-.8-4.61,2.29-9,6.9-9.8,4.61-.81,9,2.29,9.8,6.9.57,3.33,1.15,6.68,1.71,10.05.77,4.62-2.34,8.98-6.96,9.76-.47.08-.94.12-1.41.12Zm-5.89-33.28c-4,0-7.56-2.85-8.32-6.92-.62-3.33-1.25-6.64-1.88-9.92-.89-4.6,2.12-9.04,6.72-9.92,4.56-.88,9.03,2.12,9.92,6.72.64,3.31,1.27,6.65,1.9,10.01.86,4.6-2.18,9.03-6.78,9.88-.52.1-1.05.15-1.56.15Zm-6.54-33.17c-3.92,0-7.45-2.74-8.28-6.74-.69-3.32-1.39-6.61-2.09-9.87-.98-4.57,1.93-9.08,6.5-10.07,4.57-.99,9.08,1.93,10.07,6.5.71,3.3,1.41,6.62,2.11,9.97.96,4.58-1.98,9.07-6.56,10.03-.58.12-1.17.18-1.74.18Zm-7.29-33c-3.85,0-7.33-2.64-8.24-6.54-.77-3.29-1.55-6.56-2.34-9.79-1.1-4.55,1.68-9.13,6.23-10.23,4.53-1.1,9.13,1.68,10.24,6.23.8,3.28,1.59,6.6,2.37,9.94,1.07,4.56-1.76,9.11-6.32,10.18-.65.15-1.3.22-1.94.22Zm-8.17-32.79c-3.75,0-7.18-2.51-8.18-6.31-.87-3.27-1.74-6.51-2.62-9.72-1.24-4.51,1.41-9.18,5.93-10.41,4.55-1.24,9.18,1.42,10.42,5.93.9,3.26,1.78,6.55,2.66,9.87,1.2,4.53-1.5,9.16-6.02,10.36-.73.19-1.45.28-2.17.28Zm-9.18-32.52c-3.64,0-7-2.36-8.11-6.02-.98-3.24-1.97-6.44-2.96-9.61-1.4-4.46,1.08-9.22,5.54-10.62,4.47-1.4,9.22,1.08,10.62,5.55,1.01,3.23,2.02,6.48,3.01,9.78,1.36,4.48-1.18,9.21-5.65,10.56-.82.25-1.64.37-2.46.37Zm-10.39-32.15c-3.51,0-6.79-2.2-8.01-5.7-1.1-3.19-2.22-6.33-3.35-9.45-1.59-4.4.68-9.26,5.08-10.85,4.39-1.6,9.26.68,10.85,5.08,1.15,3.19,2.3,6.41,3.42,9.67,1.53,4.42-.81,9.25-5.23,10.78-.92.32-1.86.47-2.77.47Zm-11.81-31.65c-3.36,0-6.54-2.01-7.86-5.32-1.26-3.12-2.52-6.2-3.8-9.24-1.82-4.31.2-9.28,4.52-11.1,4.3-1.82,9.28.2,11.1,4.51,1.32,3.13,2.62,6.3,3.91,9.51,1.75,4.34-.36,9.28-4.7,11.02-1.03.42-2.1.61-3.15.61Zm-13.48-30.96c-3.18,0-6.23-1.8-7.67-4.86-1.43-3.03-2.87-6.02-4.34-8.96-2.08-4.19-.37-9.27,3.81-11.36,4.19-2.08,9.28-.37,11.36,3.82,1.52,3.05,3.02,6.14,4.5,9.28,1.99,4.23.18,9.28-4.06,11.28-1.17.55-2.39.81-3.6.81Zm-15.44-30.01c-2.96,0-5.84-1.56-7.39-4.32-1.64-2.91-3.29-5.78-4.97-8.6-2.39-4.02-1.06-9.22,2.96-11.61,4.03-2.39,9.22-1.06,11.61,2.96,1.74,2.93,3.46,5.92,5.17,8.95,2.29,4.08.85,9.24-3.23,11.54-1.31.74-2.74,1.09-4.15,1.09Zm-17.72-28.71c-2.71,0-5.37-1.3-7.02-3.71-1.87-2.75-3.76-5.45-5.67-8.11-2.74-3.79-1.88-9.09,1.91-11.83,3.8-2.74,9.09-1.88,11.83,1.91,2,2.78,3.99,5.61,5.95,8.49,2.63,3.87,1.63,9.14-2.25,11.77-1.46.99-3.11,1.46-4.76,1.46Zm-20.28-26.94c-2.42,0-4.83-1.03-6.5-3.03-2.12-2.54-4.27-5.02-6.44-7.45-3.12-3.49-2.82-8.85.67-11.96,3.49-3.12,8.85-2.82,11.96.67,2.29,2.57,4.56,5.19,6.8,7.87,3,3.59,2.53,8.93-1.06,11.94-1.59,1.33-3.52,1.98-5.44,1.98Zm-23.03-24.59c-2.1,0-4.19-.77-5.84-2.33-2.38-2.27-4.8-4.48-7.24-6.64-3.5-3.1-3.83-8.45-.74-11.96s8.45-3.84,11.96-.74c2.59,2.29,5.15,4.64,7.69,7.05,3.39,3.22,3.53,8.58.31,11.98-1.66,1.75-3.9,2.64-6.14,2.64Zm-25.79-21.67c-1.75,0-3.51-.54-5.03-1.66-2.63-1.95-5.29-3.84-7.99-5.67-3.86-2.64-4.86-7.91-2.22-11.77,2.63-3.87,7.91-4.86,11.77-2.23,2.87,1.96,5.71,3.98,8.51,6.05,3.76,2.78,4.56,8.09,1.78,11.85-1.66,2.25-4.22,3.44-6.82,3.44Zm-28.29-18.27c-1.4,0-2.83-.35-4.14-1.09-2.84-1.59-5.72-3.13-8.62-4.62-4.16-2.14-5.81-7.24-3.68-11.41,2.13-4.16,7.25-5.81,11.4-3.67,3.1,1.59,6.16,3.23,9.19,4.92,4.08,2.29,5.53,7.45,3.24,11.54-1.55,2.77-4.43,4.33-7.4,4.33Zm-30.32-14.64c-1.08,0-2.17-.21-3.23-.64-3.02-1.25-6.07-2.44-9.16-3.6-4.38-1.64-6.61-6.52-4.97-10.9,1.63-4.39,6.53-6.6,10.9-4.97,3.27,1.22,6.5,2.49,9.69,3.81,4.33,1.79,6.38,6.74,4.6,11.06-1.35,3.27-4.51,5.24-7.83,5.24Zm-31.81-11.14c-.79,0-1.59-.11-2.38-.34-3.15-.92-6.32-1.8-9.53-2.64-4.52-1.18-7.24-5.81-6.05-10.34,1.18-4.53,5.82-7.23,10.34-6.06,3.36.88,6.69,1.8,9.99,2.76,4.49,1.31,7.07,6.02,5.76,10.51-1.08,3.7-4.46,6.1-8.13,6.1Zm-32.78-7.94c-.54,0-1.09-.05-1.63-.16-3.22-.63-6.48-1.23-9.77-1.79-4.61-.79-7.71-5.17-6.93-9.78.79-4.61,5.18-7.71,9.78-6.92,3.42.58,6.81,1.21,10.17,1.86,4.59.9,7.59,5.35,6.69,9.94-.79,4.04-4.34,6.85-8.31,6.85Zm-33.36-5.2c-.33,0-.67-.02-1.01-.06-3.27-.39-6.58-.75-9.91-1.08-4.66-.46-8.06-4.61-7.6-9.26.46-4.66,4.61-8.07,9.26-7.6,3.44.34,6.86.71,10.25,1.11,4.65.55,7.97,4.76,7.41,9.41-.51,4.31-4.17,7.48-8.4,7.48Z"/><path class="cls-6" d="m2211.37,2591.38h-.05c-4.68-.03-8.45-3.84-8.42-8.52l.02-5.21c.02-4.67,3.81-8.44,8.47-8.44h.03c4.68.02,8.46,3.83,8.44,8.51l-.02,5.24c-.03,4.66-3.81,8.43-8.47,8.43Zm.13-28.9h-.04c-4.68-.02-8.45-3.84-8.43-8.51l.04-10.07,8.47-.03,8.47.09-.04,10.09c-.02,4.67-3.81,8.43-8.47,8.43Zm.14-33.8h-.03c-4.68-.02-8.46-3.83-8.44-8.51l.04-10.14c.02-4.67,3.81-8.44,8.47-8.44h.03c4.68.02,8.46,3.83,8.44,8.51l-.04,10.14c-.02,4.67-3.81,8.44-8.47,8.44Zm.13-33.8h-.03c-4.68-.01-8.46-3.82-8.45-8.5l.03-10.14c.01-4.67,3.8-8.45,8.47-8.45h.03c4.68.01,8.46,3.82,8.45,8.5l-.03,10.14c-.01,4.67-3.8,8.45-8.47,8.45Zm.11-33.8h-.02c-4.68,0-8.47-3.81-8.46-8.49l.03-10.15c.01-4.67,3.8-8.45,8.47-8.45h.03c4.68.01,8.46,3.82,8.45,8.5l-.03,10.13c0,4.67-3.8,8.46-8.47,8.46Zm.09-33.81h-.02c-4.68,0-8.47-3.81-8.46-8.49l.02-10.14c0-4.67,3.8-8.46,8.47-8.46h.02c4.68,0,8.47,3.81,8.46,8.49l-.02,10.14c0,4.67-3.8,8.46-8.47,8.46Zm.06-33.81h0c-4.68,0-8.47-3.8-8.46-8.48v-10.14c.01-4.68,3.8-8.47,8.48-8.47h0c4.68,0,8.47,3.8,8.46,8.48v10.14c-.01,4.68-3.8,8.47-8.48,8.47Zm.03-33.8c-4.68,0-8.47-3.79-8.47-8.47v-10.14c0-4.68,3.79-8.47,8.47-8.47s8.47,3.79,8.47,8.47v10.14c0,4.68-3.79,8.47-8.47,8.47Zm-.01-33.81c-4.68,0-8.47-3.79-8.47-8.47v-10.15c-.02-4.68,3.78-8.48,8.46-8.48h0c4.68,0,8.47,3.79,8.47,8.47v10.15c.02,4.68-3.78,8.48-8.45,8.48h0Zm-.06-33.82c-4.67,0-8.47-3.78-8.47-8.46l-.03-10.14c-.01-4.68,3.77-8.48,8.45-8.5h.03c4.67,0,8.46,3.78,8.47,8.45l.03,10.15c.01,4.68-3.78,8.48-8.46,8.49h-.02Zm-.11-33.82c-4.66,0-8.46-3.77-8.47-8.44l-.04-10.14c-.02-4.68,3.75-8.49,8.43-8.51h.04c4.66,0,8.45,3.77,8.47,8.43l.04,10.15c.02,4.68-3.76,8.49-8.44,8.51h-.03Zm-.17-33.82c-4.66,0-8.45-3.76-8.47-8.42l-.06-10.14c-.03-4.68,3.74-8.5,8.41-8.53h.06c4.65,0,8.44,3.76,8.47,8.42l.06,10.15c.03,4.68-3.74,8.49-8.42,8.52h-.05Zm-.23-33.82c-4.65,0-8.44-3.75-8.47-8.41l-.09-10.14c-.04-4.68,3.72-8.5,8.4-8.55.03,0,.05,0,.08,0,4.64,0,8.43,3.75,8.47,8.4l.09,10.15c.04,4.68-3.73,8.5-8.41,8.54-.02,0-.05,0-.07,0Zm-.32-33.82c-4.64,0-8.42-3.73-8.47-8.38l-.11-10.14c-.06-4.68,3.69-8.52,8.37-8.57.03,0,.07,0,.1,0,4.63,0,8.42,3.73,8.47,8.37l.11,10.15c.05,4.68-3.7,8.51-8.38,8.56-.03,0-.06,0-.1,0Zm-.4-33.82c-4.62,0-8.41-3.72-8.47-8.36l-.14-10.15c-.06-4.68,3.68-8.52,8.36-8.59,4.64-.08,8.52,3.68,8.59,8.36l.14,10.15c.06,4.68-3.68,8.52-8.36,8.59-.04,0-.08,0-.12,0Zm-.49-33.82c-4.61,0-8.39-3.7-8.47-8.33l-.17-10.14c-.08-4.68,3.64-8.54,8.32-8.62,4.68.04,8.54,3.65,8.62,8.32l.17,10.15c.08,4.68-3.65,8.53-8.33,8.61-.05,0-.1,0-.15,0Zm-.61-33.82c-4.61,0-8.38-3.69-8.47-8.32l-.2-10.13c-.1-4.68,3.62-8.55,8.3-8.65,4.68.03,8.55,3.62,8.65,8.3l.2,10.16c.09,4.68-3.64,8.54-8.31,8.63-.06,0-.11,0-.16,0Zm-.72-33.81c-4.59,0-8.36-3.66-8.47-8.28l-.24-10.13c-.11-4.68,3.59-8.56,8.26-8.68.07,0,.14,0,.21,0,4.58,0,8.35,3.66,8.47,8.27l.24,10.15c.11,4.68-3.6,8.56-8.27,8.67-.07,0-.14,0-.2,0Zm-.86-33.81c-4.57,0-8.34-3.64-8.47-8.24l-.28-10.13c-.14-4.68,3.55-8.58,8.23-8.71,4.81-.05,8.58,3.55,8.71,8.23l.28,10.15c.13,4.68-3.56,8.57-8.24,8.7-.08,0-.16,0-.23,0Zm-1-33.81c-4.55,0-8.31-3.62-8.46-8.2l-.33-10.13c-.16-4.68,3.51-8.59,8.19-8.75,4.57-.2,8.59,3.51,8.75,8.19l.33,10.15c.15,4.68-3.52,8.59-8.2,8.74-.09,0-.18,0-.28,0Zm-1.17-33.8c-4.53,0-8.29-3.59-8.46-8.16l-.38-10.12c-.18-4.68,3.46-8.62,8.14-8.8,4.67-.13,8.61,3.46,8.8,8.13l.39,10.16c.17,4.68-3.48,8.61-8.15,8.78-.11,0-.21,0-.32,0Zm-1.35-33.8c-4.51,0-8.26-3.56-8.46-8.11l-.45-10.12c-.21-4.68,3.41-8.64,8.08-8.85,4.8-.26,8.64,3.41,8.85,8.08l.45,10.15c.2,4.68-3.43,8.63-8.1,8.83-.12,0-.25,0-.37,0Zm-1.56-33.78c-4.49,0-8.23-3.52-8.46-8.05l-.51-10.12c-.24-4.67,3.36-8.66,8.03-8.89,4.81-.22,8.66,3.36,8.89,8.03l.51,10.14c.23,4.68-3.37,8.65-8.04,8.88-.14,0-.28.01-.43.01Zm-1.78-33.78c-4.47,0-8.2-3.49-8.45-8l-.58-10.1c-.27-4.67,3.29-8.68,7.96-8.96,4.77-.28,8.68,3.29,8.96,7.96l.58,10.16c.26,4.67-3.32,8.67-7.99,8.93-.16,0-.32.01-.48.01Zm-2.03-33.76c-4.44,0-8.16-3.45-8.45-7.94l-.66-10.1c-.31-4.67,3.22-8.71,7.89-9.02,4.74-.32,8.71,3.22,9.02,7.89.22,3.37.45,6.76.66,10.15.3,4.67-3.25,8.7-7.92,8.99-.18.01-.36.02-.54.02Zm-2.31-33.75c-4.4,0-8.12-3.4-8.44-7.86-.24-3.38-.49-6.74-.75-10.09-.35-4.67,3.14-8.73,7.81-9.09,4.66-.35,8.74,3.14,9.09,7.81.25,3.37.51,6.75.75,10.15.34,4.67-3.17,8.72-7.84,9.06-.21.01-.42.02-.62.02Zm-2.62-33.72c-4.37,0-8.07-3.35-8.44-7.78-.28-3.37-.56-6.73-.85-10.08-.4-4.66,3.06-8.77,7.72-9.17,4.72-.41,8.77,3.06,9.17,7.72.29,3.37.57,6.75.85,10.14.38,4.66-3.09,8.75-7.75,9.14-.24.02-.47.03-.7.03Zm-2.96-33.69c-4.32,0-8.01-3.29-8.43-7.68l-.96-10.08c-.45-4.66,2.96-8.8,7.62-9.25,4.63-.46,8.79,2.96,9.24,7.62l.96,10.12c.44,4.66-2.99,8.79-7.64,9.23-.27.02-.54.04-.8.04Zm-3.35-33.66c-4.28,0-7.96-3.23-8.42-7.58-.36-3.37-.72-6.72-1.08-10.06-.51-4.65,2.85-8.84,7.5-9.35,4.68-.51,8.84,2.85,9.34,7.5.37,3.36.73,6.73,1.09,10.12.49,4.65-2.88,8.83-7.54,9.32-.3.03-.6.05-.9.05Zm-3.78-33.61c-4.23,0-7.89-3.16-8.4-7.47-.4-3.36-.81-6.71-1.22-10.04-.57-4.64,2.72-8.87,7.37-9.45,4.62-.57,8.87,2.72,9.45,7.37.41,3.35.83,6.72,1.23,10.11.55,4.65-2.76,8.86-7.41,9.42-.34.04-.68.06-1.01.06Zm-4.27-33.55c-4.18,0-7.81-3.09-8.39-7.34-.45-3.35-.91-6.68-1.38-10-.65-4.63,2.58-8.92,7.21-9.57,4.65-.65,8.92,2.58,9.57,7.21.47,3.35.94,6.72,1.39,10.1.62,4.64-2.63,8.9-7.27,9.53-.38.05-.76.08-1.14.08Zm-4.82-33.47c-4.11,0-7.72-3-8.37-7.19-.51-3.34-1.03-6.67-1.56-9.98-.73-4.62,2.42-8.96,7.04-9.7,4.63-.73,8.96,2.42,9.7,7.04.53,3.34,1.06,6.7,1.58,10.07.71,4.63-2.47,8.95-7.09,9.66-.44.07-.87.1-1.29.1Zm-5.44-33.38c-4.04,0-7.62-2.9-8.34-7.02-.58-3.33-1.16-6.64-1.76-9.93-.83-4.61,2.23-9.01,6.83-9.84,4.6-.84,9.01,2.23,9.85,6.83.6,3.33,1.19,6.68,1.77,10.05.8,4.61-2.29,9-6.9,9.8-.49.09-.98.13-1.46.13Zm-6.16-33.25c-3.97,0-7.51-2.8-8.3-6.84-.65-3.31-1.31-6.61-1.99-9.88-.94-4.58,2.01-9.06,6.6-10.01,4.58-.94,9.06,2.01,10,6.59.68,3.32,1.35,6.66,2.01,10.01.91,4.59-2.08,9.05-6.68,9.95-.55.11-1.1.16-1.65.16Zm-6.97-33.09c-3.88,0-7.38-2.68-8.26-6.62-.74-3.3-1.49-6.57-2.25-9.82-1.07-4.56,1.76-9.12,6.32-10.18,4.57-1.06,9.12,1.77,10.18,6.32.77,3.3,1.53,6.62,2.29,9.96,1.03,4.57-1.84,9.1-6.41,10.13-.63.14-1.25.21-1.87.21Zm-7.91-32.88c-3.77,0-7.21-2.54-8.2-6.36-.84-3.27-1.69-6.51-2.56-9.73-1.22-4.52,1.46-9.17,5.98-10.38,4.52-1.21,9.17,1.46,10.38,5.98.88,3.27,1.75,6.57,2.6,9.9,1.17,4.53-1.56,9.15-6.09,10.32-.71.18-1.42.27-2.12.27Zm-8.99-32.59c-3.66,0-7.03-2.38-8.12-6.07-.96-3.23-1.93-6.44-2.91-9.62-1.38-4.47,1.12-9.22,5.6-10.6,4.46-1.38,9.22,1.12,10.6,5.6,1,3.24,1.99,6.51,2.97,9.8,1.33,4.49-1.23,9.2-5.72,10.53-.8.24-1.62.35-2.41.35Zm-10.26-32.21c-3.52,0-6.81-2.21-8.02-5.73-1.09-3.18-2.2-6.33-3.32-9.46-1.58-4.4.71-9.26,5.12-10.84,4.41-1.58,9.26.71,10.84,5.12,1.15,3.2,2.28,6.43,3.4,9.69,1.52,4.43-.85,9.24-5.27,10.76-.91.31-1.84.46-2.74.46Zm-11.74-31.7c-3.36,0-6.54-2.01-7.87-5.32-1.25-3.12-2.52-6.21-3.79-9.26-1.81-4.31.22-9.28,4.53-11.09,4.32-1.81,9.28.22,11.09,4.53,1.31,3.13,2.61,6.3,3.9,9.51,1.74,4.34-.37,9.28-4.71,11.02-1.03.41-2.1.61-3.15.61Zm-13.46-31c-3.18,0-6.23-1.8-7.67-4.86-1.43-3.03-2.88-6.02-4.34-8.97-2.08-4.19-.37-9.27,3.81-11.36,4.2-2.09,9.28-.37,11.36,3.82,1.52,3.06,3.02,6.15,4.5,9.29,2,4.23.18,9.28-4.05,11.28-1.17.55-2.4.81-3.61.81Zm-15.48-30.03c-2.96,0-5.83-1.55-7.39-4.32-1.64-2.91-3.3-5.77-4.98-8.59-2.4-4.02-1.08-9.22,2.94-11.62,4.01-2.4,9.22-1.08,11.62,2.94,1.75,2.94,3.48,5.93,5.19,8.95,2.3,4.08.85,9.24-3.22,11.54-1.31.74-2.74,1.09-4.15,1.09Zm-17.81-28.69c-2.7,0-5.36-1.29-7-3.69-1.88-2.74-3.78-5.43-5.7-8.07-2.76-3.78-1.93-9.08,1.86-11.84,3.79-2.76,9.08-1.92,11.84,1.86,2.02,2.78,4.02,5.61,5.99,8.49,2.64,3.86,1.65,9.13-2.21,11.78-1.46,1-3.13,1.48-4.78,1.48Zm-20.45-26.84c-2.4,0-4.79-1.02-6.46-2.99-2.13-2.52-4.3-4.98-6.49-7.38-3.15-3.46-2.91-8.82.55-11.97,3.46-3.15,8.82-2.9,11.97.55,2.33,2.55,4.63,5.17,6.9,7.84,3.03,3.57,2.59,8.91-.98,11.94-1.59,1.35-3.54,2.01-5.48,2.01Zm-23.34-24.36c-2.05,0-4.12-.74-5.75-2.25-2.4-2.22-4.85-4.39-7.32-6.49-3.56-3.03-3.99-8.38-.96-11.94,3.04-3.56,8.38-3.99,11.94-.96,2.65,2.25,5.26,4.57,7.83,6.95,3.44,3.18,3.65,8.54.47,11.97-1.67,1.81-3.94,2.72-6.23,2.72Zm-26.25-21.13c-1.67,0-3.37-.49-4.84-1.53-2.67-1.86-5.38-3.66-8.12-5.41-3.95-2.51-5.12-7.74-2.62-11.69,2.51-3.95,7.75-5.12,11.69-2.61,2.94,1.87,5.88,3.82,8.74,5.82,3.84,2.68,4.78,7.96,2.1,11.8-1.65,2.36-4.28,3.62-6.96,3.62Zm-28.9-17.2c-1.27,0-2.57-.29-3.79-.9-2.91-1.45-5.85-2.85-8.82-4.18-4.27-1.91-6.18-6.92-4.27-11.2,1.91-4.28,6.94-6.18,11.19-4.27,3.15,1.41,6.34,2.92,9.48,4.5,4.18,2.09,5.88,7.19,3.79,11.37-1.49,2.97-4.48,4.68-7.58,4.68Zm-31.12-12.88c-.89,0-1.79-.14-2.68-.44-3.08-1.02-6.19-1.99-9.34-2.89-4.5-1.29-7.09-5.99-5.8-10.49,1.29-4.5,5.98-7.09,10.48-5.8,3.37.97,6.71,2,10,3.1,4.44,1.48,6.84,6.27,5.36,10.71-1.18,3.55-4.49,5.8-8.04,5.8Z"/><rect class="cls-14" x="1721.23" y="2494.41" width="980.27" height="120.03" rx="7.68" ry="7.68"/><path class="cls-21" d="m1377.88,940.11s-9.88,257.5-189.74,339.52l79.87,55.83s162.02-182.51,137.5-346.33l-27.63-49.02Z"/><path class="cls-11" d="m1603.14,730.15h237.7c4.51,0,8.18,3.66,8.18,8.18v19.48h-254.05v-19.48c0-4.51,3.66-8.18,8.18-8.18Z" transform="translate(1432.41 -1109.36) rotate(57.75)"/><polygon class="cls-11" points="1656 971.54 1902.86 1071.97 1893.39 1103.99 1469.15 1134.23 1656 971.54"/><path class="cls-11" d="m1303.72,769.48c-.23-.36-.44-.72-.65-1.1l-30.23-54.03c-18.55-33.17-4.24-76.6,31.92-96.83l106.05-59.33c36.15-20.23,80.66-9.69,99.22,23.46l30.23,54.03c6.43,11.5,2.33,26.03-9.17,32.47-11.5,6.43-26.03,2.32-32.47-9.17l-30.23-54.03c-5.61-10.04-21.31-12.38-34.28-5.12l-106.05,59.33c-12.97,7.26-19.19,21.86-13.57,31.89l30.23,54.03c6.43,11.5,2.33,26.03-9.17,32.47-11.12,6.22-25.09,2.58-31.81-8.07Z"/><path class="cls-11" d="m1802.01,883.3l-168.3-266.77c-9.83-15.58-30.11-20.78-46.23-11.85l-286.33,158.68c-.58.32-1.14.65-1.7,1l-37.36,23.57c-16.23,10.24-21.09,31.7-10.85,47.93l188.12,298.18c10.24,16.23,31.7,21.09,47.93,10.85l37.36-23.57c.56-.35,1.1-.72,1.64-1.1l266.51-190.09c15-10.7,19.04-31.24,9.21-46.83Z"/><path class="cls-11" d="m1957.98,1168.35l15.4-150.37c.25-2.4-1.5-4.55-3.9-4.79l-9.76-1c-.94-.1-1.89.12-2.7.6l-59.49,56.48-4.3,35.42,47.68,65.42c.69.64,1.58,1.04,2.52,1.14l9.76,1c2.4.25,4.55-1.5,4.79-3.9Z"/><path class="cls-6" d="m1369.59,962.29c-1.68,0-3.33-.84-4.29-2.37l-76.57-121.38c-4.04-6.4-5.23-13.97-3.36-21.31,1.88-7.34,6.56-13.4,13.18-17.08l204.6-113.67c2.44-1.36,5.53-.48,6.9,1.97,1.36,2.45.48,5.54-1.97,6.9l-204.6,113.67c-4.16,2.31-7.09,6.12-8.27,10.73-1.18,4.61-.43,9.36,2.11,13.38l76.57,121.38c1.5,2.37.79,5.5-1.58,7-.84.53-1.78.78-2.71.78Z"/><path class="cls-4" d="m1253.99,1814.96s-105.14,229.15-160.3,324.06c0,0-10.96,59.72,0,78.5l9.34,4.15-43.57-1.3s-3.87-80.33-.85-84.82c3.02-4.49,9.07-4.19,9.07-4.19,0,0,18.68-148.03,72.8-179.62l52.44-180.62,61.08,43.84Z"/><path class="cls-12" d="m1121.64,2232.92c.07,1.05-34.03.57-52.54.23-6.84-.12-12.67-4.93-14.12-11.61l-13.99-73.47c-1.33-6.98,3.11-13.76,10.03-15.35l7.81-1.78s11.14,15.28,7.63,29.66c-3.51,14.38-6.63,51.64,2.23,55.98,8.86,4.34,34.34,5.1,34.34,5.1,0,0,18.03,1.79,18.61,11.25Z"/><path class="cls-11" d="m1146.41,1929.51l56.98-315.56,105.19,65.74s-70.73,197.7-109.57,276.11c-38.84,78.41-92.04,166.54-92.04,166.54,0,0-17.53,4.38-39.44-21.91,0,0,13.15-118.33,78.89-170.93Z"/><path class="cls-12" d="m1353.64,2234.25c3.45,1.96,2.02,7.23-1.94,7.19-30.99-.31-100.43-1.29-106.6-3.86-7.97-3.31,2.9-31.94,14.34-41.63l63.17,20.62,31.04,17.68Z"/><path class="cls-20" d="m1373.25,1800.35s-67.94,328.67-87.16,392.79l45.47,28.53s-22.78-3.88-39.68-5.1c-16.9-1.22-32.44-20.62-32.44-20.62l5.45-8.69s17.04-326.88,12.89-364l95.47-22.91Z"/><path class="cls-16" d="m1401.03,1279.24c-26.04,7.22-114.27,30.43-169.35,29.48l33.82,190.83-2.69,31.13,110.26-.49s31.04-72.08,55.53-108.02c7.07-10.38,1.81-22.76-2.2-34.66l5.51-3.67c5.61-3.73,8.03-10.74,5.94-17.14l-26.85-82.15c-1.39-4.14-5.75-6.48-9.96-5.31Z"/><path class="cls-11" d="m1381.9,1513.9l-1.63,14.21c-.34,2.92-.02,5.84.96,8.61,5.23,14.81,21.78,70.48,10.61,156.13,0,0-63.9,24.67-131.16,5.81-37.88-10.62-61.96-47.65-56.51-86.62,1.54-11,4.33-19.71,5.44-23.25,8.81-28.23,36.25-47.77,47.89-55,3.35-2.08,5.43-5.7,5.61-9.63l.65-14.07s88.98,16.09,118.13,3.82Z"/><path class="cls-22" d="m1338.74,1294.62c.39-.51-23.02-70.66-23.02-70.66l-33.53,3.04-13.1,79.59s52.54,10.61,69.64-11.96Z"/><path class="cls-19" d="m1290.23,1113.32c2.24,1.39,71.64,30.07,56.73,102.13-.88,4.26-3.72,7.87-7.69,9.64-10.18,4.54-32.11,12.32-58.34,9.66-36.36-3.7-60.18-67.14-59.17-85.6,1.01-18.46,46.32-49.62,68.47-35.82Z"/><path class="cls-15" d="m1406.74,1319.2c-3.61-9.4,3.04-19.51,13.1-19.97,25.58-1.18,70.05-9.25,107.69-46.89,24.42-24.42,30.88-113.24,30.88-113.24,0,0,5.15-41.18,15.44-41.18s0,25.74,0,25.74c0,0,25.74,15.44,51.47-5.15,25.74-20.59-5.15,30.89-30.88,41.18,0,0,9.89,202.79-159.41,205.95-6.2.12-11.84-3.67-14.07-9.46l-14.22-36.98Z"/><path class="cls-12" d="m1313.78,1258.81c0-13.56-2.84-26.46-7.95-38.14-5.76-13.16-4.57-28.53,4.64-39.55,15.08-18.04,20.55-40.91,12.24-60.94-12.98-31.27-54.58-43.72-92.92-27.81-27.18,11.28-45.4,33.78-49.08,57.06-2.12,13.38-9.28,25.32-20.05,33.54-15.27,11.66-26.9,27.82-32.93,46.51-4.07,12.63-12.27,23.5-23.79,30.08-26.03,14.85-47.73,37.78-60.87,67.2-32.96,73.8.34,160.43,74.38,193.5,74.04,33.07,160.78.05,193.74-73.75,18.31-41,16.15-85.95-2.08-123.48-4.57-9.42-5.53-20.27-1.74-30.03,4.12-10.61,6.4-22.13,6.4-34.2Z"/><path class="cls-11" d="m1255.98,2170.56c-5.96-1.7,21.91-442.66,21.91-442.66l-17.53-43.83,131.48,8.77s-52.59,398.83-83.27,482.1c0,0-21.91,4.38-52.59-4.38Z"/><path class="cls-11" d="m1373.25,1286.55l-24.2,5.78s16.49,163.85-27.33,225.21l26.3,4.38s46.09-93.82,25.24-235.37Z"/><path class="cls-18" d="m2575.83,3231.27s-235.72-36.23-247.25-189.03c-9.27-122.8,61.93,13.3,157.06,105.77,7.47,7.26,18.68-3.35,11.84-11.2-67.14-77.17-161.65-200.18-132.37-251.76,44.21-77.87,44.31-30.77,102.8,78.59,58.49,109.36,97.04,112.39,68.43,34.68-28.61-77.71-134.37-161.49-118.26-207.95,16.11-46.46,71.77-102.84,93.02-131.16,21.25-28.32,154.32,82.23,142.5,143.72-11.82,61.49-73.26,145.7-58.83,199.86,14.43,54.16,54.99-41.18,72.77-95.18,17.77-54,37.72-83.94,67.68-19.34,29.96,64.6-21.19,143.03-70.6,184.6-49.41,41.57-65.66,82.04-39.81,63.6,25.85-18.44,100.67-81.71,112.67-116.62,11.99-34.91,70.81,118.78-161.63,211.42Z"/><path class="cls-8" d="m2567.23,3221.33c-.61-.44-.97-1.19-.86-2,24.51-181.08-29.76-421.72-30.32-424.13-.26-1.13.45-2.26,1.58-2.52,1.13-.26,2.26.45,2.52,1.58.55,2.42,55,243.79,30.38,425.64-.15,1.15-1.22,1.96-2.37,1.8-.35-.05-.68-.18-.95-.38Z"/><path class="cls-3" d="m2582.32,3230.11s-172.63-168.17-92.42-300.62c64.46-106.45,43.13,47.29,67.1,179.2,1.88,10.35,17.33,8.21,16.32-2.26-9.93-102.89-15.46-259.55,38.9-284.79,82.07-38.1,54.51.7,38.43,124.99-16.09,124.29,13.85,149.41,35.93,68.69,22.08-80.71-15.73-211.71,24.79-240.47,40.52-28.76,119.4-42.46,153.5-53.28,34.1-10.82,78.67,158.22,32.85,201.87-45.81,43.64-145.79,76.84-165.71,129.86-19.93,53.02,69.41-1.59,115.72-35.58,46.32-33.98,80.3-46.9,67.02,23.82-13.28,70.72-101.39,105.21-166.43,110.4-65.04,5.19-102.16,28.94-70.08,28.95,32.09,0,130.77-8.12,161.13-29.79,30.36-21.67-11.48,139.27-257.05,79.03Z"/><path class="cls-2" d="m2581.08,3216.88c-.24-.72-.1-1.55.47-2.15,126.46-134.56,223.07-364.36,224.03-366.67.45-1.09,1.7-1.6,2.79-1.15,1.08.45,1.6,1.7,1.14,2.78-.96,2.31-97.87,232.81-224.86,367.95-.8.86-2.15.9-3.01.09-.26-.25-.45-.55-.56-.86Z"/></svg>