<?xml version="1.0" encoding="iso-8859-1"?>
<!-- Generator: Adobe Illustrator 19.0.0, SVG Export Plug-In . SVG Version: 6.00 Build 0)  -->
<svg version="1.1" id="Capa_1" xmlns="http://www.w3.org/2000/svg" xmlns:xlink="http://www.w3.org/1999/xlink" x="0px" y="0px"
	 viewBox="0 0 474.906 474.906" style="enable-background:new 0 0 474.906 474.906;" xml:space="preserve">
<path style="fill:#1185E0;" d="M459.233,104.229H133.747c-8.882,0-15.673,6.792-15.673,15.673v235.102
	c0,8.882,6.792,15.673,15.673,15.673h325.486c8.882,0,15.673-6.792,15.673-15.673V119.902
	C474.906,111.02,468.114,104.229,459.233,104.229z M416.392,135.576l-123.82,105.012L175.02,135.576H416.392z M443.559,339.331
	H149.42V154.906L281.6,272.98c5.747,5.224,14.629,5.224,20.376,0.522l141.584-119.641V339.331z"/>
<g>
	<path style="fill:#4DCFE0;" d="M88.816,253.127H61.649c-8.882,0-15.673-6.792-15.673-15.673s6.792-15.673,15.673-15.673h27.167
		c8.882,0,15.673,6.792,15.673,15.673S97.698,253.127,88.816,253.127z"/>
	<path style="fill:#4DCFE0;" d="M88.816,316.865H15.673C6.792,316.865,0,310.073,0,301.192c0-8.882,6.792-15.673,15.673-15.673
		h73.143c8.882,0,15.673,6.792,15.673,15.673C104.49,310.073,97.698,316.865,88.816,316.865z"/>
	<path style="fill:#4DCFE0;" d="M88.816,189.388H15.673C6.792,189.388,0,182.596,0,173.714s6.792-15.673,15.673-15.673h73.143
		c8.882,0,15.673,6.792,15.673,15.673S97.698,189.388,88.816,189.388z"/>
</g>
<g>
</g>
<g>
</g>
<g>
</g>
<g>
</g>
<g>
</g>
<g>
</g>
<g>
</g>
<g>
</g>
<g>
</g>
<g>
</g>
<g>
</g>
<g>
</g>
<g>
</g>
<g>
</g>
<g>
</g>
</svg>
