<svg xmlns="http://www.w3.org/2000/svg" xmlns:xlink="http://www.w3.org/1999/xlink" width="559.849" height="305.115" viewBox="0 0 559.849 305.115">
  <defs>
    <linearGradient id="linear-gradient" x1="0.5" x2="0.5" y2="1" gradientUnits="objectBoundingBox">
      <stop offset="0" stop-color="#0069aa"/>
      <stop offset="1" stop-color="#0069aa" stop-opacity="0.6"/>
    </linearGradient>
  </defs>
  <g id="number8_65" transform="translate(-1059.151 -910.307)">
    <g id="number" transform="translate(-214.226 -3213)">
      <path id="Пересечение_2" data-name="Пересечение 2" d="M63.228,113.569q-6.889-6.727-6.889-17.765V89.924q0-10.8,7.009-17.483t17.886-6.687q10.958,0,17.926,6.687t6.969,18.047v5.72q0,10.473-6.727,17.282T81.4,120.3Q70.116,120.3,63.228,113.569Zm9.91-32.75q-3.1,3.384-3.1,9.346v5.963a12.85,12.85,0,0,0,3.182,8.983,10.546,10.546,0,0,0,8.177,3.5,10.222,10.222,0,0,0,8.1-3.343q2.94-3.344,2.94-9.386V89.842a12.736,12.736,0,0,0-3.142-9.023,11.33,11.33,0,0,0-16.153,0ZM18.876,104.1,76.159,12.418l10.07,5.8L28.947,109.9ZM6.992,47.586Q-.058,40.938-.058,29.66v-5.72q0-10.634,6.848-17.442T24.757-.311q11.279,0,18.087,6.809t6.808,17.845v5.8q0,10.554-6.808,17.322T24.918,54.232Q14.041,54.232,6.992,47.586Zm9.668-32.7a13.69,13.69,0,0,0-3.021,9.249V30.11a12.92,12.92,0,0,0,3.1,9.007,10.491,10.491,0,0,0,8.177,3.433,10.276,10.276,0,0,0,8.057-3.433q3.062-3.433,3.061-9.329v-5.9a13.071,13.071,0,0,0-3.1-9.048,10.437,10.437,0,0,0-8.177-3.473A10.14,10.14,0,0,0,16.66,14.884Z" transform="translate(1727.097 4126.75)" fill="url(#linear-gradient)"/>
    </g>
    <g id="number-2" data-name="number" transform="translate(14.774 -3521)">
      <path id="Пересечение_1" data-name="Пересечение 1" d="M-64.082,250.885q-23.4-30.447-23.986-90.167V111.377q0-61.482,23.007-92.222T5.134-11.586q46.8,0,69.8,29.957T98.53,108.049V157.39q0,61.482-23.007,92.712t-70,31.23Q-40.684,281.332-64.082,250.885Zm34.95-206.57Q-40.1,62.035-40.684,99.629v64.614q0,39.944,11.16,59.523t35.049,19.58q22.908,0,33.873-18.112T50.951,168.55V104.132q0-40.138-10.965-58.838T5.134,26.6Q-18.167,26.6-29.132,44.315Zm-204.611,233.1V48.387l-69.9,23.83V32.273L-192.43-8.649h6.07V277.416Z" transform="translate(1348.021 4442.893)" fill="url(#linear-gradient)"/>
    </g>
    <g id="number-3" data-name="number" transform="translate(270.774 -3421)">
      <path id="Пересечение_1-2" data-name="Пересечение 1" d="M-135.172,192.721a34.451,34.451,0,0,0,3.882-7.739,23.076,23.076,0,0,0,1.1-6.714V169.04H-119.5l-.049,8.545a23.811,23.811,0,0,1-2.612,10.376,25.772,25.772,0,0,1-6.617,8.569Zm33.863-16.772a20.035,20.035,0,0,1-6.958-14.623h11.474a12.534,12.534,0,0,0,3.712,7.934,11.289,11.289,0,0,0,7.91,2.758,10.2,10.2,0,0,0,8.52-3.906q3.052-3.907,3.052-10.645,0-6.493-3.37-10.278t-9.277-3.785a15.432,15.432,0,0,0-5.468.855A15.505,15.505,0,0,0-96.6,147.6l-9.473-2.344,3.857-35.84H-64.03v10.254H-92.35L-94.3,136.666a21.959,21.959,0,0,1,11.133-2.831q10.156,0,15.8,6.494t5.639,17.48q0,10.841-6.25,17.261t-17.139,6.421Q-94.889,181.49-101.309,175.948Z" transform="translate(1352.021 4439.893)" fill="url(#linear-gradient)"/>
      <path id="Пересечение_3" data-name="Пересечение 3" d="M-121.7,180.807v-9.815h1.709q10.5-.147,16.114-5.054t6.3-15.16a18.581,18.581,0,0,1-13.916,6.3q-9.374,0-14.941-6.567T-132,133.249a28.3,28.3,0,0,1,2.831-12.744,21.12,21.12,0,0,1,8.057-8.887A22.858,22.858,0,0,1-109,108.444q10.742,0,17.041,8.008t6.3,21.435v3.32q0,19.239-8.691,29.345t-25.928,10.255Zm4.468-58.569a17.756,17.756,0,0,0-3.052,10.669q0,6.689,3.076,10.791a9.746,9.746,0,0,0,8.2,4.1,11.976,11.976,0,0,0,6.69-2.05,13.511,13.511,0,0,0,4.834-5.665v-4.639q0-7.861-3.223-12.646t-8.349-4.785A9.593,9.593,0,0,0-117.228,122.238Z" transform="translate(1430.021 4439.893)" fill="url(#linear-gradient)"/>
    </g>
    <text id="годовых" transform="translate(1512 1058)" fill="#2a2a2a" font-size="23" font-family="Roboto-Bold, Roboto" font-weight="700"><tspan x="0" y="0">годовых</tspan></text>
  </g>
</svg>
