<svg xmlns="http://www.w3.org/2000/svg" xmlns:xlink="http://www.w3.org/1999/xlink" width="349.208" height="305.159" viewBox="0 0 349.208 305.159">
  <defs>
    <linearGradient id="linear-gradient" x1="0.5" x2="0.5" y2="1" gradientUnits="objectBoundingBox">
      <stop offset="0" stop-color="#0069aa"/>
      <stop offset="1" stop-color="#0069aa" stop-opacity="0.6"/>
    </linearGradient>
  </defs>
  <g id="number7_44" transform="translate(-1261.767 -913.3)">
    <g id="number" transform="translate(1503.407 913.439)">
      <path id="Пересечение_2" data-name="Пересечение 2" d="M63.285,113.881Q56.4,107.154,56.4,96.116V90.235q0-10.8,7.009-17.483t17.886-6.687q10.958,0,17.926,6.687T106.187,90.8v5.72q0,10.473-6.727,17.282t-18.007,6.808Q70.173,120.608,63.285,113.881Zm9.91-32.75q-3.1,3.384-3.1,9.346v5.962a12.85,12.85,0,0,0,3.182,8.983,10.546,10.546,0,0,0,8.177,3.5,10.222,10.222,0,0,0,8.1-3.343q2.94-3.344,2.94-9.386V90.154a12.732,12.732,0,0,0-3.142-9.023,11.33,11.33,0,0,0-16.153,0ZM18.933,104.414,76.216,12.73l10.07,5.8L29,110.215ZM7.05,47.9Q0,41.25,0,29.971V24.25Q0,13.617,6.848,6.809T24.815,0Q36.094,0,42.9,6.809T49.71,24.654v5.8q0,10.554-6.808,17.322T24.976,54.544Q14.1,54.544,7.05,47.9Zm9.668-32.7A13.69,13.69,0,0,0,13.7,24.445v5.977a12.92,12.92,0,0,0,3.1,9.007,10.491,10.491,0,0,0,8.177,3.433,10.276,10.276,0,0,0,8.057-3.433Q36.095,36,36.094,30.1V24.2a13.071,13.071,0,0,0-3.1-9.048,10.437,10.437,0,0,0-8.177-3.473A10.14,10.14,0,0,0,16.718,15.2Z" fill="url(#linear-gradient)"/>
    </g>
    <g id="number-2" data-name="number" transform="translate(1261.767 914.321)">
      <path id="Пересечение_1" data-name="Пересечение 1" d="M33.678,284.064,147.438,37.159H0V-1.021H197.563V25.412L83.607,284.064Z" transform="translate(0 0)" fill="url(#linear-gradient)"/>
    </g>
    <g id="number-3" data-name="number" transform="translate(1478.217 1131.349)">
      <path id="Пересечение_1-2" data-name="Пересечение 1" d="M0,83.3a34.45,34.45,0,0,0,3.882-7.739,23.076,23.076,0,0,0,1.1-6.714V59.62H15.674l-.049,8.545A23.811,23.811,0,0,1,13.013,78.54,25.771,25.771,0,0,1,6.4,87.109ZM31.006,66.6a18.009,18.009,0,0,1-6.543-14.551H36.329a9.926,9.926,0,0,0,3.149,7.618,11.945,11.945,0,0,0,8.472,2.93q5.517,0,8.691-2.93t3.174-8.5q0-5.616-3.321-8.643T46.631,39.5H39.649V30.127h7.227q5.467-.049,8.666-2.831t3.2-8.057q0-5.079-2.661-7.886t-8.13-2.808A11.33,11.33,0,0,0,40.088,11.3a9.219,9.219,0,0,0-3.076,7.2H25.147a17.962,17.962,0,0,1,2.905-9.961,19.523,19.523,0,0,1,8.105-7.007A26.4,26.4,0,0,1,47.8-.977q10.645,0,16.724,5.347t6.079,14.868a15.114,15.114,0,0,1-3.052,9.009,19.147,19.147,0,0,1-7.886,6.372,17.445,17.445,0,0,1,8.911,6.3,17.245,17.245,0,0,1,3.052,10.255q0,9.57-6.567,15.234T47.8,72.07Q37.549,72.07,31.006,66.6Z" fill="url(#linear-gradient)"/>
      <path id="Пересечение_3" data-name="Пересечение 3" d="M2.784,71.094V62.94L26.465,37.11a59.058,59.058,0,0,0,7.3-9.546,15.469,15.469,0,0,0,2.173-7.691,11.682,11.682,0,0,0-2.857-8.2,9.908,9.908,0,0,0-7.691-3.126q-5.762,0-8.935,3.516T13.281,21.68H1.417A23.256,23.256,0,0,1,4.37,9.986,20.341,20.341,0,0,1,12.818,1.9,26.886,26.886,0,0,1,25.489-.977q10.35,0,16.332,5.2T47.8,18.6a24.41,24.41,0,0,1-3,11.157,63.47,63.47,0,0,1-9.839,13.256l-17.383,18.6H50.586v9.473Z" transform="translate(82.172)" fill="url(#linear-gradient)"/>
    </g>
    <text id="годовых" transform="translate(1502.594 1059.358)" fill="#2a2a2a" font-size="23" font-family="Roboto-Bold, Roboto" font-weight="700"><tspan x="0" y="0">годовых</tspan></text>
  </g>
</svg>
