<svg id="Слой_1" data-name="Слой 1" xmlns="http://www.w3.org/2000/svg" viewBox="0 0 873.48 873.48"><defs><style>.cls-1{fill:#bdbcbc;}.cls-2{fill:none;stroke:#bdbcbc;stroke-width:68.03px;}</style></defs><path class="cls-1" d="M637.82,392.29q-66.63-43.92-133.23-87.92-60.37-39.84-120.74-79.7c-9.76-6.47-20.14-10.86-32-11.49-25.49-1.35-59.46,17.57-59.22,57.16.33,55.8.08,111.61.08,167.42q0,84.21,0,168.42c0,16.67,5.43,31,18.19,42.09,21,18.27,48,19.64,72.35,3.58q75.19-49.54,150.31-99.18,52.26-34.49,104.5-69c16.86-11.13,25.67-26.75,25.21-47C662.88,417.41,653.8,402.82,637.82,392.29Z"/><circle class="cls-2" cx="436.74" cy="436.74" r="402.73"/></svg>