<?xml version="1.0" encoding="iso-8859-1"?>
<!-- Generator: Adobe Illustrator 19.0.0, SVG Export Plug-In . SVG Version: 6.00 Build 0)  -->
<svg version="1.1" id="Capa_1" xmlns="http://www.w3.org/2000/svg" xmlns:xlink="http://www.w3.org/1999/xlink" x="0px" y="0px"
	 viewBox="0 0 440.424 440.424" style="enable-background:new 0 0 440.424 440.424;" xml:space="preserve">
<path style="fill:#1185E0;" d="M414.302,158.563H26.122C11.494,158.563,0,170.057,0,184.686v226.743
	c0,14.629,11.494,26.122,26.122,26.122h388.18c14.629,0,26.122-11.494,26.122-26.122V184.686
	C440.424,170.057,428.931,158.563,414.302,158.563z M81.502,189.91L81.502,189.91c0,27.167-21.943,49.11-48.588,49.11h-1.567v-49.11
	L81.502,189.91L81.502,189.91z M31.347,357.094h1.567c26.645,0,48.588,21.943,48.588,48.588v0.522H31.347V357.094z M409.078,406.204
	H358.4v-0.522c0-26.645,21.943-48.588,48.588-48.588h2.09L409.078,406.204L409.078,406.204z M409.078,325.747h-2.09
	c-43.886,0-79.935,36.049-79.935,79.935v0.522H112.849v-0.522c0-43.886-36.049-79.935-79.935-79.935h-1.567v-55.38h1.567
	c43.886,0,79.935-36.049,79.935-79.935v-0.522h214.204v0.522c0,43.886,36.049,79.935,79.935,79.935h2.09V325.747z M409.078,239.02
	h-2.09c-26.645,0-48.588-21.943-48.588-48.588v-0.522h50.678L409.078,239.02L409.078,239.02z"/>
<g>
	<path style="fill:#4DCFE0;" d="M219.951,368.065c-38.661,0-70.008-31.347-70.008-70.008s31.347-70.008,70.008-70.008
		s70.008,31.347,70.008,70.008S258.612,368.065,219.951,368.065z M219.951,259.396c-21.42,0-38.661,17.241-38.661,38.661
		s17.241,38.661,38.661,38.661c21.42,0,38.661-17.241,38.661-38.661S241.371,259.396,219.951,259.396z"/>
	<path style="fill:#4DCFE0;" d="M363.102,18.024c0-0.522,0-1.045,0-1.567c0-0.522,0-1.045-0.522-1.567
		c0-0.522-0.522-1.045-0.522-1.567c0-0.522-0.522-1.045-0.522-1.567c0-0.522-0.522-0.522-0.522-1.045
		c-0.522-0.522-0.522-1.045-1.045-1.567c0,0,0-0.522-0.522-0.522l-0.522-0.522c-0.522-0.522-0.522-1.045-1.045-1.045
		c-0.522-0.522-0.522-0.522-1.045-1.045c-0.522-0.522-1.045-0.522-1.045-1.045c-0.522,0-1.045-0.522-1.045-0.522
		c-0.522,0-1.045-0.522-1.567-0.522s-1.045-0.522-1.567-0.522c-0.522,0-1.045,0-1.567-0.522c-0.522,0-1.045,0-1.567,0
		s-0.522,0-1.045,0h-82.025c-8.882,0-15.673,6.792-15.673,15.673s6.792,15.673,15.673,15.673h37.616l-55.38,44.408l-71.576-65.306
		c-3.135-2.612-7.314-4.18-11.494-4.18c-4.18,0-8.359,2.09-10.971,5.224l-77.322,87.249c-5.747,6.269-5.224,16.196,1.045,21.943
		c3.135,2.612,6.792,4.18,10.449,4.18c4.18,0,8.359-1.567,11.494-5.224l67.396-75.233l70.008,63.739
		c5.747,5.224,14.629,5.747,20.376,0.522l74.71-60.604v49.633c0,8.882,6.792,15.673,15.673,15.673s15.673-6.792,15.673-15.673
		V18.547C363.102,18.547,363.102,18.024,363.102,18.024z"/>
</g>
<g>
</g>
<g>
</g>
<g>
</g>
<g>
</g>
<g>
</g>
<g>
</g>
<g>
</g>
<g>
</g>
<g>
</g>
<g>
</g>
<g>
</g>
<g>
</g>
<g>
</g>
<g>
</g>
<g>
</g>
</svg>
